<?xml version="1.0" encoding="UTF-8" standalone="no"?>
<!DOCTYPE svg PUBLIC "-//W3C//DTD SVG 1.1//EN"
 "http://www.w3.org/Graphics/SVG/1.1/DTD/svg11.dtd">
<!-- Generated by graphviz version 2.38.0 (20140413.2041)
 -->
<!-- Title: controllers_diagram Pages: 1 -->
<svg width="1021pt" height="1152pt"
 viewBox="0.00 0.00 1021.50 1152.00" xmlns="http://www.w3.org/2000/svg" xmlns:xlink="http://www.w3.org/1999/xlink">
<g id="graph0" class="graph" transform="scale(1 1) rotate(0) translate(463.5 648)">
<title>controllers_diagram</title>
<polygon fill="none" stroke="none" points="-463.5,504 -463.5,-648 558,-648 558,504 -463.5,504"/>
<!-- _diagram_info -->
<g id="node1" class="node"><title>_diagram_info</title>
<text text-anchor="start" x="-372" y="316.4" font-family="Times,serif" font-size="13.00">Controllers diagram</text>
<text text-anchor="start" x="-372" y="330.4" font-family="Times,serif" font-size="13.00">Date: May 11 2018 &#45; 19:27</text>
<text text-anchor="start" x="-372" y="344.4" font-family="Times,serif" font-size="13.00">Migration version: 20180508181624</text>
<text text-anchor="start" x="-372" y="358.4" font-family="Times,serif" font-size="13.00">Generated by RailRoady 1.5.3</text>
<text text-anchor="start" x="-372" y="372.4" font-family="Times,serif" font-size="13.00">http://railroady.prestonlee.com</text>
</g>
<!-- GroupsController -->
<g id="node2" class="node"><title>GroupsController</title>
<path fill="none" stroke="black" d="M372,359C372,359 460,359 460,359 466,359 472,353 472,347 472,347 472,143 472,143 472,137 466,131 460,131 460,131 372,131 372,131 366,131 360,137 360,143 360,143 360,347 360,347 360,353 366,359 372,359"/>
<text text-anchor="middle" x="416" y="146.2" font-family="Times,serif" font-size="14.00">GroupsController</text>
<polyline fill="none" stroke="black" points="360,154 472,154 "/>
<text text-anchor="start" x="368" y="169.2" font-family="Times,serif" font-size="14.00">create</text>
<text text-anchor="start" x="368" y="184.2" font-family="Times,serif" font-size="14.00">destroy</text>
<text text-anchor="start" x="368" y="199.2" font-family="Times,serif" font-size="14.00">edit</text>
<text text-anchor="start" x="368" y="214.2" font-family="Times,serif" font-size="14.00">index</text>
<text text-anchor="start" x="368" y="229.2" font-family="Times,serif" font-size="14.00">new</text>
<text text-anchor="start" x="368" y="244.2" font-family="Times,serif" font-size="14.00">new_subgroup</text>
<text text-anchor="start" x="368" y="259.2" font-family="Times,serif" font-size="14.00">show</text>
<text text-anchor="start" x="368" y="274.2" font-family="Times,serif" font-size="14.00">update</text>
<polyline fill="none" stroke="black" points="360,282 472,282 "/>
<polyline fill="none" stroke="black" points="360,306 472,306 "/>
<text text-anchor="start" x="368" y="321.2" font-family="Times,serif" font-size="14.00">_layout</text>
<text text-anchor="start" x="368" y="336.2" font-family="Times,serif" font-size="14.00">group_params</text>
<text text-anchor="start" x="368" y="351.2" font-family="Times,serif" font-size="14.00">set_group</text>
</g>
<!-- PracticalWorksController -->
<g id="node3" class="node"><title>PracticalWorksController</title>
<path fill="none" stroke="black" d="M-308,-0.5C-308,-0.5 -176,-0.5 -176,-0.5 -170,-0.5 -164,-6.5 -164,-12.5 -164,-12.5 -164,-201.5 -164,-201.5 -164,-207.5 -170,-213.5 -176,-213.5 -176,-213.5 -308,-213.5 -308,-213.5 -314,-213.5 -320,-207.5 -320,-201.5 -320,-201.5 -320,-12.5 -320,-12.5 -320,-6.5 -314,-0.5 -308,-0.5"/>
<text text-anchor="middle" x="-242" y="-198.3" font-family="Times,serif" font-size="14.00">PracticalWorksController</text>
<polyline fill="none" stroke="black" points="-320,-190.5 -164,-190.5 "/>
<text text-anchor="start" x="-312" y="-175.3" font-family="Times,serif" font-size="14.00">create</text>
<text text-anchor="start" x="-312" y="-160.3" font-family="Times,serif" font-size="14.00">destroy</text>
<text text-anchor="start" x="-312" y="-145.3" font-family="Times,serif" font-size="14.00">edit</text>
<text text-anchor="start" x="-312" y="-130.3" font-family="Times,serif" font-size="14.00">index</text>
<text text-anchor="start" x="-312" y="-115.3" font-family="Times,serif" font-size="14.00">new</text>
<text text-anchor="start" x="-312" y="-100.3" font-family="Times,serif" font-size="14.00">show</text>
<text text-anchor="start" x="-312" y="-85.3" font-family="Times,serif" font-size="14.00">update</text>
<polyline fill="none" stroke="black" points="-320,-77.5 -164,-77.5 "/>
<polyline fill="none" stroke="black" points="-320,-53.5 -164,-53.5 "/>
<text text-anchor="start" x="-312" y="-38.3" font-family="Times,serif" font-size="14.00">_layout</text>
<text text-anchor="start" x="-312" y="-23.3" font-family="Times,serif" font-size="14.00">practical_work_params</text>
<text text-anchor="start" x="-312" y="-8.3" font-family="Times,serif" font-size="14.00">set_practical_work</text>
</g>
<!-- SubjectsController -->
<g id="node4" class="node"><title>SubjectsController</title>
<path fill="none" stroke="black" d="M252,-400.5C252,-400.5 346,-400.5 346,-400.5 352,-400.5 358,-406.5 358,-412.5 358,-412.5 358,-601.5 358,-601.5 358,-607.5 352,-613.5 346,-613.5 346,-613.5 252,-613.5 252,-613.5 246,-613.5 240,-607.5 240,-601.5 240,-601.5 240,-412.5 240,-412.5 240,-406.5 246,-400.5 252,-400.5"/>
<text text-anchor="middle" x="299" y="-598.3" font-family="Times,serif" font-size="14.00">SubjectsController</text>
<polyline fill="none" stroke="black" points="240,-590.5 358,-590.5 "/>
<text text-anchor="start" x="248" y="-575.3" font-family="Times,serif" font-size="14.00">create</text>
<text text-anchor="start" x="248" y="-560.3" font-family="Times,serif" font-size="14.00">destroy</text>
<text text-anchor="start" x="248" y="-545.3" font-family="Times,serif" font-size="14.00">edit</text>
<text text-anchor="start" x="248" y="-530.3" font-family="Times,serif" font-size="14.00">index</text>
<text text-anchor="start" x="248" y="-515.3" font-family="Times,serif" font-size="14.00">new</text>
<text text-anchor="start" x="248" y="-500.3" font-family="Times,serif" font-size="14.00">show</text>
<text text-anchor="start" x="248" y="-485.3" font-family="Times,serif" font-size="14.00">update</text>
<polyline fill="none" stroke="black" points="240,-477.5 358,-477.5 "/>
<polyline fill="none" stroke="black" points="240,-453.5 358,-453.5 "/>
<text text-anchor="start" x="248" y="-438.3" font-family="Times,serif" font-size="14.00">_layout</text>
<text text-anchor="start" x="248" y="-423.3" font-family="Times,serif" font-size="14.00">set_subject</text>
<text text-anchor="start" x="248" y="-408.3" font-family="Times,serif" font-size="14.00">subject_params</text>
</g>
<!-- PostsController -->
<g id="node5" class="node"><title>PostsController</title>
<path fill="none" stroke="black" d="M432.5,-420.5C432.5,-420.5 509.5,-420.5 509.5,-420.5 515.5,-420.5 521.5,-426.5 521.5,-432.5 521.5,-432.5 521.5,-621.5 521.5,-621.5 521.5,-627.5 515.5,-633.5 509.5,-633.5 509.5,-633.5 432.5,-633.5 432.5,-633.5 426.5,-633.5 420.5,-627.5 420.5,-621.5 420.5,-621.5 420.5,-432.5 420.5,-432.5 420.5,-426.5 426.5,-420.5 432.5,-420.5"/>
<text text-anchor="middle" x="471" y="-618.3" font-family="Times,serif" font-size="14.00">PostsController</text>
<polyline fill="none" stroke="black" points="420.5,-610.5 521.5,-610.5 "/>
<text text-anchor="start" x="428.5" y="-595.3" font-family="Times,serif" font-size="14.00">create</text>
<text text-anchor="start" x="428.5" y="-580.3" font-family="Times,serif" font-size="14.00">destroy</text>
<text text-anchor="start" x="428.5" y="-565.3" font-family="Times,serif" font-size="14.00">edit</text>
<text text-anchor="start" x="428.5" y="-550.3" font-family="Times,serif" font-size="14.00">index</text>
<text text-anchor="start" x="428.5" y="-535.3" font-family="Times,serif" font-size="14.00">new</text>
<text text-anchor="start" x="428.5" y="-520.3" font-family="Times,serif" font-size="14.00">show</text>
<text text-anchor="start" x="428.5" y="-505.3" font-family="Times,serif" font-size="14.00">update</text>
<polyline fill="none" stroke="black" points="420.5,-497.5 521.5,-497.5 "/>
<polyline fill="none" stroke="black" points="420.5,-473.5 521.5,-473.5 "/>
<text text-anchor="start" x="428.5" y="-458.3" font-family="Times,serif" font-size="14.00">_layout</text>
<text text-anchor="start" x="428.5" y="-443.3" font-family="Times,serif" font-size="14.00">find_post</text>
<text text-anchor="start" x="428.5" y="-428.3" font-family="Times,serif" font-size="14.00">post_params</text>
</g>
<!-- SubgroupsController -->
<g id="node6" class="node"><title>SubgroupsController</title>
<path fill="none" stroke="black" d="M-108,379.5C-108,379.5 -2,379.5 -2,379.5 4,379.5 10,373.5 10,367.5 10,367.5 10,178.5 10,178.5 10,172.5 4,166.5 -2,166.5 -2,166.5 -108,166.5 -108,166.5 -114,166.5 -120,172.5 -120,178.5 -120,178.5 -120,367.5 -120,367.5 -120,373.5 -114,379.5 -108,379.5"/>
<text text-anchor="middle" x="-55" y="181.7" font-family="Times,serif" font-size="14.00">SubgroupsController</text>
<polyline fill="none" stroke="black" points="-120,189.5 10,189.5 "/>
<text text-anchor="start" x="-112" y="204.7" font-family="Times,serif" font-size="14.00">create</text>
<text text-anchor="start" x="-112" y="219.7" font-family="Times,serif" font-size="14.00">destroy</text>
<text text-anchor="start" x="-112" y="234.7" font-family="Times,serif" font-size="14.00">edit</text>
<text text-anchor="start" x="-112" y="249.7" font-family="Times,serif" font-size="14.00">index</text>
<text text-anchor="start" x="-112" y="264.7" font-family="Times,serif" font-size="14.00">new</text>
<text text-anchor="start" x="-112" y="279.7" font-family="Times,serif" font-size="14.00">show</text>
<text text-anchor="start" x="-112" y="294.7" font-family="Times,serif" font-size="14.00">update</text>
<polyline fill="none" stroke="black" points="-120,302.5 10,302.5 "/>
<polyline fill="none" stroke="black" points="-120,326.5 10,326.5 "/>
<text text-anchor="start" x="-112" y="341.7" font-family="Times,serif" font-size="14.00">_layout</text>
<text text-anchor="start" x="-112" y="356.7" font-family="Times,serif" font-size="14.00">set_subgroup</text>
<text text-anchor="start" x="-112" y="371.7" font-family="Times,serif" font-size="14.00">subgroup_params</text>
</g>
<!-- LaboratoryWorksController -->
<g id="node7" class="node"><title>LaboratoryWorksController</title>
<path fill="none" stroke="black" d="M171.5,159.5C171.5,159.5 316.5,159.5 316.5,159.5 322.5,159.5 328.5,153.5 328.5,147.5 328.5,147.5 328.5,-41.5 328.5,-41.5 328.5,-47.5 322.5,-53.5 316.5,-53.5 316.5,-53.5 171.5,-53.5 171.5,-53.5 165.5,-53.5 159.5,-47.5 159.5,-41.5 159.5,-41.5 159.5,147.5 159.5,147.5 159.5,153.5 165.5,159.5 171.5,159.5"/>
<text text-anchor="middle" x="244" y="-38.3" font-family="Times,serif" font-size="14.00">LaboratoryWorksController</text>
<polyline fill="none" stroke="black" points="159.5,-30.5 328.5,-30.5 "/>
<text text-anchor="start" x="167.5" y="-15.3" font-family="Times,serif" font-size="14.00">create</text>
<text text-anchor="start" x="167.5" y="-0.3" font-family="Times,serif" font-size="14.00">destroy</text>
<text text-anchor="start" x="167.5" y="14.7" font-family="Times,serif" font-size="14.00">edit</text>
<text text-anchor="start" x="167.5" y="29.7" font-family="Times,serif" font-size="14.00">index</text>
<text text-anchor="start" x="167.5" y="44.7" font-family="Times,serif" font-size="14.00">new</text>
<text text-anchor="start" x="167.5" y="59.7" font-family="Times,serif" font-size="14.00">show</text>
<text text-anchor="start" x="167.5" y="74.7" font-family="Times,serif" font-size="14.00">update</text>
<polyline fill="none" stroke="black" points="159.5,82.5 328.5,82.5 "/>
<polyline fill="none" stroke="black" points="159.5,106.5 328.5,106.5 "/>
<text text-anchor="start" x="167.5" y="121.7" font-family="Times,serif" font-size="14.00">_layout</text>
<text text-anchor="start" x="167.5" y="136.7" font-family="Times,serif" font-size="14.00">laboratory_work_params</text>
<text text-anchor="start" x="167.5" y="151.7" font-family="Times,serif" font-size="14.00">set_laboratory_work</text>
</g>
<!-- SemestersController -->
<g id="node8" class="node"><title>SemestersController</title>
<path fill="none" stroke="black" d="M412,99.5C412,99.5 516,99.5 516,99.5 522,99.5 528,93.5 528,87.5 528,87.5 528,-101.5 528,-101.5 528,-107.5 522,-113.5 516,-113.5 516,-113.5 412,-113.5 412,-113.5 406,-113.5 400,-107.5 400,-101.5 400,-101.5 400,87.5 400,87.5 400,93.5 406,99.5 412,99.5"/>
<text text-anchor="middle" x="464" y="-98.3" font-family="Times,serif" font-size="14.00">SemestersController</text>
<polyline fill="none" stroke="black" points="400,-90.5 528,-90.5 "/>
<text text-anchor="start" x="408" y="-75.3" font-family="Times,serif" font-size="14.00">create</text>
<text text-anchor="start" x="408" y="-60.3" font-family="Times,serif" font-size="14.00">destroy</text>
<text text-anchor="start" x="408" y="-45.3" font-family="Times,serif" font-size="14.00">edit</text>
<text text-anchor="start" x="408" y="-30.3" font-family="Times,serif" font-size="14.00">index</text>
<text text-anchor="start" x="408" y="-15.3" font-family="Times,serif" font-size="14.00">new</text>
<text text-anchor="start" x="408" y="-0.3" font-family="Times,serif" font-size="14.00">show</text>
<text text-anchor="start" x="408" y="14.7" font-family="Times,serif" font-size="14.00">update</text>
<polyline fill="none" stroke="black" points="400,22.5 528,22.5 "/>
<polyline fill="none" stroke="black" points="400,46.5 528,46.5 "/>
<text text-anchor="start" x="408" y="61.7" font-family="Times,serif" font-size="14.00">_layout</text>
<text text-anchor="start" x="408" y="76.7" font-family="Times,serif" font-size="14.00">semester_params</text>
<text text-anchor="start" x="408" y="91.7" font-family="Times,serif" font-size="14.00">set_semester</text>
</g>
<!-- BrigadesController -->
<g id="node9" class="node"><title>BrigadesController</title>
<path fill="none" stroke="black" d="M92,-400.5C92,-400.5 188,-400.5 188,-400.5 194,-400.5 200,-406.5 200,-412.5 200,-412.5 200,-601.5 200,-601.5 200,-607.5 194,-613.5 188,-613.5 188,-613.5 92,-613.5 92,-613.5 86,-613.5 80,-607.5 80,-601.5 80,-601.5 80,-412.5 80,-412.5 80,-406.5 86,-400.5 92,-400.5"/>
<text text-anchor="middle" x="140" y="-598.3" font-family="Times,serif" font-size="14.00">BrigadesController</text>
<polyline fill="none" stroke="black" points="80,-590.5 200,-590.5 "/>
<text text-anchor="start" x="88" y="-575.3" font-family="Times,serif" font-size="14.00">create</text>
<text text-anchor="start" x="88" y="-560.3" font-family="Times,serif" font-size="14.00">destroy</text>
<text text-anchor="start" x="88" y="-545.3" font-family="Times,serif" font-size="14.00">edit</text>
<text text-anchor="start" x="88" y="-530.3" font-family="Times,serif" font-size="14.00">index</text>
<text text-anchor="start" x="88" y="-515.3" font-family="Times,serif" font-size="14.00">new</text>
<text text-anchor="start" x="88" y="-500.3" font-family="Times,serif" font-size="14.00">show</text>
<text text-anchor="start" x="88" y="-485.3" font-family="Times,serif" font-size="14.00">update</text>
<polyline fill="none" stroke="black" points="80,-477.5 200,-477.5 "/>
<polyline fill="none" stroke="black" points="80,-453.5 200,-453.5 "/>
<text text-anchor="start" x="88" y="-438.3" font-family="Times,serif" font-size="14.00">_layout</text>
<text text-anchor="start" x="88" y="-423.3" font-family="Times,serif" font-size="14.00">brigade_params</text>
<text text-anchor="start" x="88" y="-408.3" font-family="Times,serif" font-size="14.00">set_brigade</text>
</g>
<!-- AcademicPlansController -->
<g id="node10" class="node"><title>AcademicPlansController</title>
<path fill="none" stroke="black" d="M-307.5,259.5C-307.5,259.5 -174.5,259.5 -174.5,259.5 -168.5,259.5 -162.5,253.5 -162.5,247.5 -162.5,247.5 -162.5,58.5 -162.5,58.5 -162.5,52.5 -168.5,46.5 -174.5,46.5 -174.5,46.5 -307.5,46.5 -307.5,46.5 -313.5,46.5 -319.5,52.5 -319.5,58.5 -319.5,58.5 -319.5,247.5 -319.5,247.5 -319.5,253.5 -313.5,259.5 -307.5,259.5"/>
<text text-anchor="middle" x="-241" y="61.7" font-family="Times,serif" font-size="14.00">AcademicPlansController</text>
<polyline fill="none" stroke="black" points="-319.5,69.5 -162.5,69.5 "/>
<text text-anchor="start" x="-311.5" y="84.7" font-family="Times,serif" font-size="14.00">create</text>
<text text-anchor="start" x="-311.5" y="99.7" font-family="Times,serif" font-size="14.00">destroy</text>
<text text-anchor="start" x="-311.5" y="114.7" font-family="Times,serif" font-size="14.00">edit</text>
<text text-anchor="start" x="-311.5" y="129.7" font-family="Times,serif" font-size="14.00">index</text>
<text text-anchor="start" x="-311.5" y="144.7" font-family="Times,serif" font-size="14.00">new</text>
<text text-anchor="start" x="-311.5" y="159.7" font-family="Times,serif" font-size="14.00">show</text>
<text text-anchor="start" x="-311.5" y="174.7" font-family="Times,serif" font-size="14.00">update</text>
<polyline fill="none" stroke="black" points="-319.5,182.5 -162.5,182.5 "/>
<polyline fill="none" stroke="black" points="-319.5,206.5 -162.5,206.5 "/>
<text text-anchor="start" x="-311.5" y="221.7" font-family="Times,serif" font-size="14.00">_layout</text>
<text text-anchor="start" x="-311.5" y="236.7" font-family="Times,serif" font-size="14.00">academic_plan_params</text>
<text text-anchor="start" x="-311.5" y="251.7" font-family="Times,serif" font-size="14.00">set_academic_plan</text>
</g>
<!-- CampusController -->
<g id="node11" class="node"><title>CampusController</title>
<path fill="none" stroke="black" d="M-67.5,-400.5C-67.5,-400.5 25.5,-400.5 25.5,-400.5 31.5,-400.5 37.5,-406.5 37.5,-412.5 37.5,-412.5 37.5,-601.5 37.5,-601.5 37.5,-607.5 31.5,-613.5 25.5,-613.5 25.5,-613.5 -67.5,-613.5 -67.5,-613.5 -73.5,-613.5 -79.5,-607.5 -79.5,-601.5 -79.5,-601.5 -79.5,-412.5 -79.5,-412.5 -79.5,-406.5 -73.5,-400.5 -67.5,-400.5"/>
<text text-anchor="middle" x="-21" y="-598.3" font-family="Times,serif" font-size="14.00">CampusController</text>
<polyline fill="none" stroke="black" points="-79.5,-590.5 37.5,-590.5 "/>
<text text-anchor="start" x="-71.5" y="-575.3" font-family="Times,serif" font-size="14.00">create</text>
<text text-anchor="start" x="-71.5" y="-560.3" font-family="Times,serif" font-size="14.00">destroy</text>
<text text-anchor="start" x="-71.5" y="-545.3" font-family="Times,serif" font-size="14.00">edit</text>
<text text-anchor="start" x="-71.5" y="-530.3" font-family="Times,serif" font-size="14.00">index</text>
<text text-anchor="start" x="-71.5" y="-515.3" font-family="Times,serif" font-size="14.00">new</text>
<text text-anchor="start" x="-71.5" y="-500.3" font-family="Times,serif" font-size="14.00">show</text>
<text text-anchor="start" x="-71.5" y="-485.3" font-family="Times,serif" font-size="14.00">update</text>
<polyline fill="none" stroke="black" points="-79.5,-477.5 37.5,-477.5 "/>
<polyline fill="none" stroke="black" points="-79.5,-453.5 37.5,-453.5 "/>
<text text-anchor="start" x="-71.5" y="-438.3" font-family="Times,serif" font-size="14.00">_layout</text>
<text text-anchor="start" x="-71.5" y="-423.3" font-family="Times,serif" font-size="14.00">campus_params</text>
<text text-anchor="start" x="-71.5" y="-408.3" font-family="Times,serif" font-size="14.00">set_campus</text>
</g>
<!-- ClassroomsController -->
<g id="node12" class="node"><title>ClassroomsController</title>
<path fill="none" stroke="black" d="M412,-160.5C412,-160.5 524,-160.5 524,-160.5 530,-160.5 536,-166.5 536,-172.5 536,-172.5 536,-361.5 536,-361.5 536,-367.5 530,-373.5 524,-373.5 524,-373.5 412,-373.5 412,-373.5 406,-373.5 400,-367.5 400,-361.5 400,-361.5 400,-172.5 400,-172.5 400,-166.5 406,-160.5 412,-160.5"/>
<text text-anchor="middle" x="468" y="-358.3" font-family="Times,serif" font-size="14.00">ClassroomsController</text>
<polyline fill="none" stroke="black" points="400,-350.5 536,-350.5 "/>
<text text-anchor="start" x="408" y="-335.3" font-family="Times,serif" font-size="14.00">create</text>
<text text-anchor="start" x="408" y="-320.3" font-family="Times,serif" font-size="14.00">destroy</text>
<text text-anchor="start" x="408" y="-305.3" font-family="Times,serif" font-size="14.00">edit</text>
<text text-anchor="start" x="408" y="-290.3" font-family="Times,serif" font-size="14.00">index</text>
<text text-anchor="start" x="408" y="-275.3" font-family="Times,serif" font-size="14.00">new</text>
<text text-anchor="start" x="408" y="-260.3" font-family="Times,serif" font-size="14.00">show</text>
<text text-anchor="start" x="408" y="-245.3" font-family="Times,serif" font-size="14.00">update</text>
<polyline fill="none" stroke="black" points="400,-237.5 536,-237.5 "/>
<polyline fill="none" stroke="black" points="400,-213.5 536,-213.5 "/>
<text text-anchor="start" x="408" y="-198.3" font-family="Times,serif" font-size="14.00">_layout</text>
<text text-anchor="start" x="408" y="-183.3" font-family="Times,serif" font-size="14.00">classroom_params</text>
<text text-anchor="start" x="408" y="-168.3" font-family="Times,serif" font-size="14.00">set_classroom</text>
</g>
<!-- ProjectsController -->
<g id="node13" class="node"><title>ProjectsController</title>
<path fill="none" stroke="black" d="M52,419.5C52,419.5 144,419.5 144,419.5 150,419.5 156,413.5 156,407.5 156,407.5 156,218.5 156,218.5 156,212.5 150,206.5 144,206.5 144,206.5 52,206.5 52,206.5 46,206.5 40,212.5 40,218.5 40,218.5 40,407.5 40,407.5 40,413.5 46,419.5 52,419.5"/>
<text text-anchor="middle" x="98" y="221.7" font-family="Times,serif" font-size="14.00">ProjectsController</text>
<polyline fill="none" stroke="black" points="40,229.5 156,229.5 "/>
<text text-anchor="start" x="48" y="244.7" font-family="Times,serif" font-size="14.00">create</text>
<text text-anchor="start" x="48" y="259.7" font-family="Times,serif" font-size="14.00">destroy</text>
<text text-anchor="start" x="48" y="274.7" font-family="Times,serif" font-size="14.00">edit</text>
<text text-anchor="start" x="48" y="289.7" font-family="Times,serif" font-size="14.00">index</text>
<text text-anchor="start" x="48" y="304.7" font-family="Times,serif" font-size="14.00">new</text>
<text text-anchor="start" x="48" y="319.7" font-family="Times,serif" font-size="14.00">show</text>
<text text-anchor="start" x="48" y="334.7" font-family="Times,serif" font-size="14.00">update</text>
<polyline fill="none" stroke="black" points="40,342.5 156,342.5 "/>
<polyline fill="none" stroke="black" points="40,366.5 156,366.5 "/>
<text text-anchor="start" x="48" y="381.7" font-family="Times,serif" font-size="14.00">_layout</text>
<text text-anchor="start" x="48" y="396.7" font-family="Times,serif" font-size="14.00">project_params</text>
<text text-anchor="start" x="48" y="411.7" font-family="Times,serif" font-size="14.00">set_project</text>
</g>
<!-- TeachersProjectMembershipsController -->
<g id="node14" class="node"><title>TeachersProjectMembershipsController</title>
<path fill="none" stroke="black" d="M-108,119.5C-108,119.5 102,119.5 102,119.5 108,119.5 114,113.5 114,107.5 114,107.5 114,-81.5 114,-81.5 114,-87.5 108,-93.5 102,-93.5 102,-93.5 -108,-93.5 -108,-93.5 -114,-93.5 -120,-87.5 -120,-81.5 -120,-81.5 -120,107.5 -120,107.5 -120,113.5 -114,119.5 -108,119.5"/>
<text text-anchor="middle" x="-3" y="-78.3" font-family="Times,serif" font-size="14.00">TeachersProjectMembershipsController</text>
<polyline fill="none" stroke="black" points="-120,-70.5 114,-70.5 "/>
<text text-anchor="start" x="-112" y="-55.3" font-family="Times,serif" font-size="14.00">create</text>
<text text-anchor="start" x="-112" y="-40.3" font-family="Times,serif" font-size="14.00">destroy</text>
<text text-anchor="start" x="-112" y="-25.3" font-family="Times,serif" font-size="14.00">edit</text>
<text text-anchor="start" x="-112" y="-10.3" font-family="Times,serif" font-size="14.00">index</text>
<text text-anchor="start" x="-112" y="4.7" font-family="Times,serif" font-size="14.00">new</text>
<text text-anchor="start" x="-112" y="19.7" font-family="Times,serif" font-size="14.00">show</text>
<text text-anchor="start" x="-112" y="34.7" font-family="Times,serif" font-size="14.00">update</text>
<polyline fill="none" stroke="black" points="-120,42.5 114,42.5 "/>
<polyline fill="none" stroke="black" points="-120,66.5 114,66.5 "/>
<text text-anchor="start" x="-112" y="81.7" font-family="Times,serif" font-size="14.00">_layout</text>
<text text-anchor="start" x="-112" y="96.7" font-family="Times,serif" font-size="14.00">set_teachers_project_membership</text>
<text text-anchor="start" x="-112" y="111.7" font-family="Times,serif" font-size="14.00">teachers_project_membership_params</text>
</g>
<!-- ClassesTimetablesController -->
<g id="node15" class="node"><title>ClassesTimetablesController</title>
<path fill="none" stroke="black" d="M-287.5,-300.5C-287.5,-300.5 -138.5,-300.5 -138.5,-300.5 -132.5,-300.5 -126.5,-306.5 -126.5,-312.5 -126.5,-312.5 -126.5,-501.5 -126.5,-501.5 -126.5,-507.5 -132.5,-513.5 -138.5,-513.5 -138.5,-513.5 -287.5,-513.5 -287.5,-513.5 -293.5,-513.5 -299.5,-507.5 -299.5,-501.5 -299.5,-501.5 -299.5,-312.5 -299.5,-312.5 -299.5,-306.5 -293.5,-300.5 -287.5,-300.5"/>
<text text-anchor="middle" x="-213" y="-498.3" font-family="Times,serif" font-size="14.00">ClassesTimetablesController</text>
<polyline fill="none" stroke="black" points="-299.5,-490.5 -126.5,-490.5 "/>
<text text-anchor="start" x="-291.5" y="-475.3" font-family="Times,serif" font-size="14.00">create</text>
<text text-anchor="start" x="-291.5" y="-460.3" font-family="Times,serif" font-size="14.00">destroy</text>
<text text-anchor="start" x="-291.5" y="-445.3" font-family="Times,serif" font-size="14.00">edit</text>
<text text-anchor="start" x="-291.5" y="-430.3" font-family="Times,serif" font-size="14.00">index</text>
<text text-anchor="start" x="-291.5" y="-415.3" font-family="Times,serif" font-size="14.00">new</text>
<text text-anchor="start" x="-291.5" y="-400.3" font-family="Times,serif" font-size="14.00">show</text>
<text text-anchor="start" x="-291.5" y="-385.3" font-family="Times,serif" font-size="14.00">update</text>
<polyline fill="none" stroke="black" points="-299.5,-377.5 -126.5,-377.5 "/>
<polyline fill="none" stroke="black" points="-299.5,-353.5 -126.5,-353.5 "/>
<text text-anchor="start" x="-291.5" y="-338.3" font-family="Times,serif" font-size="14.00">_layout</text>
<text text-anchor="start" x="-291.5" y="-323.3" font-family="Times,serif" font-size="14.00">classes_timetable_params</text>
<text text-anchor="start" x="-291.5" y="-308.3" font-family="Times,serif" font-size="14.00">set_classes_timetable</text>
</g>
<!-- RaitingsController -->
<g id="node16" class="node"><title>RaitingsController</title>
<path fill="none" stroke="black" d="M-447.5,-460.5C-447.5,-460.5 -354.5,-460.5 -354.5,-460.5 -348.5,-460.5 -342.5,-466.5 -342.5,-472.5 -342.5,-472.5 -342.5,-631.5 -342.5,-631.5 -342.5,-637.5 -348.5,-643.5 -354.5,-643.5 -354.5,-643.5 -447.5,-643.5 -447.5,-643.5 -453.5,-643.5 -459.5,-637.5 -459.5,-631.5 -459.5,-631.5 -459.5,-472.5 -459.5,-472.5 -459.5,-466.5 -453.5,-460.5 -447.5,-460.5"/>
<text text-anchor="middle" x="-401" y="-628.3" font-family="Times,serif" font-size="14.00">RaitingsController</text>
<polyline fill="none" stroke="black" points="-459.5,-620.5 -342.5,-620.5 "/>
<text text-anchor="start" x="-451.5" y="-605.3" font-family="Times,serif" font-size="14.00">data</text>
<text text-anchor="start" x="-451.5" y="-590.3" font-family="Times,serif" font-size="14.00">data=</text>
<text text-anchor="start" x="-451.5" y="-575.3" font-family="Times,serif" font-size="14.00">index</text>
<text text-anchor="start" x="-451.5" y="-560.3" font-family="Times,serif" font-size="14.00">raiting</text>
<text text-anchor="start" x="-451.5" y="-545.3" font-family="Times,serif" font-size="14.00">raiting=</text>
<text text-anchor="start" x="-451.5" y="-530.3" font-family="Times,serif" font-size="14.00">students_groups</text>
<text text-anchor="start" x="-451.5" y="-515.3" font-family="Times,serif" font-size="14.00">students_groups=</text>
<polyline fill="none" stroke="black" points="-459.5,-507.5 -342.5,-507.5 "/>
<polyline fill="none" stroke="black" points="-459.5,-483.5 -342.5,-483.5 "/>
<text text-anchor="start" x="-451.5" y="-468.3" font-family="Times,serif" font-size="14.00">_layout</text>
</g>
<!-- BrigadeMembershipsController -->
<g id="node17" class="node"><title>BrigadeMembershipsController</title>
<path fill="none" stroke="black" d="M-68,-140.5C-68,-140.5 98,-140.5 98,-140.5 104,-140.5 110,-146.5 110,-152.5 110,-152.5 110,-341.5 110,-341.5 110,-347.5 104,-353.5 98,-353.5 98,-353.5 -68,-353.5 -68,-353.5 -74,-353.5 -80,-347.5 -80,-341.5 -80,-341.5 -80,-152.5 -80,-152.5 -80,-146.5 -74,-140.5 -68,-140.5"/>
<text text-anchor="middle" x="15" y="-338.3" font-family="Times,serif" font-size="14.00">BrigadeMembershipsController</text>
<polyline fill="none" stroke="black" points="-80,-330.5 110,-330.5 "/>
<text text-anchor="start" x="-72" y="-315.3" font-family="Times,serif" font-size="14.00">create</text>
<text text-anchor="start" x="-72" y="-300.3" font-family="Times,serif" font-size="14.00">destroy</text>
<text text-anchor="start" x="-72" y="-285.3" font-family="Times,serif" font-size="14.00">edit</text>
<text text-anchor="start" x="-72" y="-270.3" font-family="Times,serif" font-size="14.00">index</text>
<text text-anchor="start" x="-72" y="-255.3" font-family="Times,serif" font-size="14.00">new</text>
<text text-anchor="start" x="-72" y="-240.3" font-family="Times,serif" font-size="14.00">show</text>
<text text-anchor="start" x="-72" y="-225.3" font-family="Times,serif" font-size="14.00">update</text>
<polyline fill="none" stroke="black" points="-80,-217.5 110,-217.5 "/>
<polyline fill="none" stroke="black" points="-80,-193.5 110,-193.5 "/>
<text text-anchor="start" x="-72" y="-178.3" font-family="Times,serif" font-size="14.00">_layout</text>
<text text-anchor="start" x="-72" y="-163.3" font-family="Times,serif" font-size="14.00">brigade_membership_params</text>
<text text-anchor="start" x="-72" y="-148.3" font-family="Times,serif" font-size="14.00">set_brigade_membership</text>
</g>
<!-- LessonsController -->
<g id="node18" class="node"><title>LessonsController</title>
<path fill="none" stroke="black" d="M212,419.5C212,419.5 304,419.5 304,419.5 310,419.5 316,413.5 316,407.5 316,407.5 316,218.5 316,218.5 316,212.5 310,206.5 304,206.5 304,206.5 212,206.5 212,206.5 206,206.5 200,212.5 200,218.5 200,218.5 200,407.5 200,407.5 200,413.5 206,419.5 212,419.5"/>
<text text-anchor="middle" x="258" y="221.7" font-family="Times,serif" font-size="14.00">LessonsController</text>
<polyline fill="none" stroke="black" points="200,229.5 316,229.5 "/>
<text text-anchor="start" x="208" y="244.7" font-family="Times,serif" font-size="14.00">create</text>
<text text-anchor="start" x="208" y="259.7" font-family="Times,serif" font-size="14.00">destroy</text>
<text text-anchor="start" x="208" y="274.7" font-family="Times,serif" font-size="14.00">edit</text>
<text text-anchor="start" x="208" y="289.7" font-family="Times,serif" font-size="14.00">index</text>
<text text-anchor="start" x="208" y="304.7" font-family="Times,serif" font-size="14.00">new</text>
<text text-anchor="start" x="208" y="319.7" font-family="Times,serif" font-size="14.00">show</text>
<text text-anchor="start" x="208" y="334.7" font-family="Times,serif" font-size="14.00">update</text>
<polyline fill="none" stroke="black" points="200,342.5 316,342.5 "/>
<polyline fill="none" stroke="black" points="200,366.5 316,366.5 "/>
<text text-anchor="start" x="208" y="381.7" font-family="Times,serif" font-size="14.00">_layout</text>
<text text-anchor="start" x="208" y="396.7" font-family="Times,serif" font-size="14.00">lesson_params</text>
<text text-anchor="start" x="208" y="411.7" font-family="Times,serif" font-size="14.00">set_lesson</text>
</g>
<!-- ApplicationController -->
<g id="node19" class="node"><title>ApplicationController</title>
<path fill="none" stroke="black" d="M372,499.5C372,499.5 542,499.5 542,499.5 548,499.5 554,493.5 554,487.5 554,487.5 554,418.5 554,418.5 554,412.5 548,406.5 542,406.5 542,406.5 372,406.5 372,406.5 366,406.5 360,412.5 360,418.5 360,418.5 360,487.5 360,487.5 360,493.5 366,499.5 372,499.5"/>
<text text-anchor="middle" x="457" y="421.7" font-family="Times,serif" font-size="14.00">ApplicationController</text>
<polyline fill="none" stroke="black" points="360,429.5 554,429.5 "/>
<polyline fill="none" stroke="black" points="360,453.5 554,453.5 "/>
<text text-anchor="start" x="368" y="468.7" font-family="Times,serif" font-size="14.00">configure_permitted_parameters</text>
<polyline fill="none" stroke="black" points="360,476.5 554,476.5 "/>
<text text-anchor="start" x="368" y="491.7" font-family="Times,serif" font-size="14.00">_layout</text>
</g>
<!-- StudentsProjectMembershipsController -->
<g id="node20" class="node"><title>StudentsProjectMembershipsController</title>
<path fill="none" stroke="black" d="M152,-140.5C152,-140.5 360,-140.5 360,-140.5 366,-140.5 372,-146.5 372,-152.5 372,-152.5 372,-341.5 372,-341.5 372,-347.5 366,-353.5 360,-353.5 360,-353.5 152,-353.5 152,-353.5 146,-353.5 140,-347.5 140,-341.5 140,-341.5 140,-152.5 140,-152.5 140,-146.5 146,-140.5 152,-140.5"/>
<text text-anchor="middle" x="256" y="-338.3" font-family="Times,serif" font-size="14.00">StudentsProjectMembershipsController</text>
<polyline fill="none" stroke="black" points="140,-330.5 372,-330.5 "/>
<text text-anchor="start" x="148" y="-315.3" font-family="Times,serif" font-size="14.00">create</text>
<text text-anchor="start" x="148" y="-300.3" font-family="Times,serif" font-size="14.00">destroy</text>
<text text-anchor="start" x="148" y="-285.3" font-family="Times,serif" font-size="14.00">edit</text>
<text text-anchor="start" x="148" y="-270.3" font-family="Times,serif" font-size="14.00">index</text>
<text text-anchor="start" x="148" y="-255.3" font-family="Times,serif" font-size="14.00">new</text>
<text text-anchor="start" x="148" y="-240.3" font-family="Times,serif" font-size="14.00">show</text>
<text text-anchor="start" x="148" y="-225.3" font-family="Times,serif" font-size="14.00">update</text>
<polyline fill="none" stroke="black" points="140,-217.5 372,-217.5 "/>
<polyline fill="none" stroke="black" points="140,-193.5 372,-193.5 "/>
<text text-anchor="start" x="148" y="-178.3" font-family="Times,serif" font-size="14.00">_layout</text>
<text text-anchor="start" x="148" y="-163.3" font-family="Times,serif" font-size="14.00">set_students_project_membership</text>
<text text-anchor="start" x="148" y="-148.3" font-family="Times,serif" font-size="14.00">students_project_membership_params</text>
</g>
</g>
</svg>
