<?xml version="1.0" encoding="UTF-8" standalone="no"?>
<!DOCTYPE svg PUBLIC "-//W3C//DTD SVG 1.1//EN"
 "http://www.w3.org/Graphics/SVG/1.1/DTD/svg11.dtd">
<!-- Generated by graphviz version 2.38.0 (20140413.2041)
 -->
<!-- Title: controllers_diagram Pages: 1 -->
<svg width="1169pt" height="1209pt"
 viewBox="0.00 0.00 1169.00 1209.00" xmlns="http://www.w3.org/2000/svg" xmlns:xlink="http://www.w3.org/1999/xlink">
<g id="graph0" class="graph" transform="scale(1 1) rotate(0) translate(487 701)">
<title>controllers_diagram</title>
<polygon fill="none" stroke="none" points="-487,508 -487,-701 682,-701 682,508 -487,508"/>
<!-- _diagram_info -->
<g id="node1" class="node"><title>_diagram_info</title>
<text text-anchor="start" x="302" y="419.4" font-family="Times,serif" font-size="13.00">Controllers diagram</text>
<text text-anchor="start" x="302" y="433.4" font-family="Times,serif" font-size="13.00">Date: May 24 2018 &#45; 06:47</text>
<text text-anchor="start" x="302" y="447.4" font-family="Times,serif" font-size="13.00">Migration version: 20180524020223</text>
<text text-anchor="start" x="302" y="461.4" font-family="Times,serif" font-size="13.00">Generated by RailRoady 1.5.3</text>
<text text-anchor="start" x="302" y="475.4" font-family="Times,serif" font-size="13.00">http://railroady.prestonlee.com</text>
</g>
<!-- GroupsController -->
<g id="node2" class="node"><title>GroupsController</title>
<path fill="none" stroke="black" d="M369,104C369,104 457,104 457,104 463,104 469,98 469,92 469,92 469,-112 469,-112 469,-118 463,-124 457,-124 457,-124 369,-124 369,-124 363,-124 357,-118 357,-112 357,-112 357,92 357,92 357,98 363,104 369,104"/>
<text text-anchor="middle" x="413" y="-108.8" font-family="Times,serif" font-size="14.00">GroupsController</text>
<polyline fill="none" stroke="black" points="357,-101 469,-101 "/>
<text text-anchor="start" x="365" y="-85.8" font-family="Times,serif" font-size="14.00">create</text>
<text text-anchor="start" x="365" y="-70.8" font-family="Times,serif" font-size="14.00">destroy</text>
<text text-anchor="start" x="365" y="-55.8" font-family="Times,serif" font-size="14.00">edit</text>
<text text-anchor="start" x="365" y="-40.8" font-family="Times,serif" font-size="14.00">index</text>
<text text-anchor="start" x="365" y="-25.8" font-family="Times,serif" font-size="14.00">new</text>
<text text-anchor="start" x="365" y="-10.8" font-family="Times,serif" font-size="14.00">new_subgroup</text>
<text text-anchor="start" x="365" y="4.2" font-family="Times,serif" font-size="14.00">show</text>
<text text-anchor="start" x="365" y="19.2" font-family="Times,serif" font-size="14.00">update</text>
<polyline fill="none" stroke="black" points="357,27 469,27 "/>
<polyline fill="none" stroke="black" points="357,51 469,51 "/>
<text text-anchor="start" x="365" y="66.2" font-family="Times,serif" font-size="14.00">_layout</text>
<text text-anchor="start" x="365" y="81.2" font-family="Times,serif" font-size="14.00">group_params</text>
<text text-anchor="start" x="365" y="96.2" font-family="Times,serif" font-size="14.00">set_group</text>
</g>
<!-- PracticalWorksController -->
<g id="node3" class="node"><title>PracticalWorksController</title>
<path fill="none" stroke="black" d="M138,125C138,125 302,125 302,125 308,125 314,119 314,113 314,113 314,-181 314,-181 314,-187 308,-193 302,-193 302,-193 138,-193 138,-193 132,-193 126,-187 126,-181 126,-181 126,113 126,113 126,119 132,125 138,125"/>
<text text-anchor="middle" x="220" y="-177.8" font-family="Times,serif" font-size="14.00">PracticalWorksController</text>
<polyline fill="none" stroke="black" points="126,-170 314,-170 "/>
<text text-anchor="start" x="134" y="-154.8" font-family="Times,serif" font-size="14.00">create</text>
<text text-anchor="start" x="134" y="-139.8" font-family="Times,serif" font-size="14.00">create_for_teacher</text>
<text text-anchor="start" x="134" y="-124.8" font-family="Times,serif" font-size="14.00">destroy</text>
<text text-anchor="start" x="134" y="-109.8" font-family="Times,serif" font-size="14.00">edit</text>
<text text-anchor="start" x="134" y="-94.8" font-family="Times,serif" font-size="14.00">index</text>
<text text-anchor="start" x="134" y="-79.8" font-family="Times,serif" font-size="14.00">new</text>
<text text-anchor="start" x="134" y="-64.8" font-family="Times,serif" font-size="14.00">show</text>
<text text-anchor="start" x="134" y="-49.8" font-family="Times,serif" font-size="14.00">update</text>
<text text-anchor="start" x="134" y="-34.8" font-family="Times,serif" font-size="14.00">update_for_student</text>
<text text-anchor="start" x="134" y="-19.8" font-family="Times,serif" font-size="14.00">update_for_teacher</text>
<polyline fill="none" stroke="black" points="126,-12 314,-12 "/>
<polyline fill="none" stroke="black" points="126,12 314,12 "/>
<text text-anchor="start" x="134" y="27.2" font-family="Times,serif" font-size="14.00">_layout</text>
<text text-anchor="start" x="134" y="42.2" font-family="Times,serif" font-size="14.00">get_group</text>
<text text-anchor="start" x="134" y="57.2" font-family="Times,serif" font-size="14.00">get_params_for_student</text>
<text text-anchor="start" x="134" y="72.2" font-family="Times,serif" font-size="14.00">get_params_for_teacher</text>
<text text-anchor="start" x="134" y="87.2" font-family="Times,serif" font-size="14.00">get_params_for_teacher_create</text>
<text text-anchor="start" x="134" y="102.2" font-family="Times,serif" font-size="14.00">set_practical_work_for_student</text>
<text text-anchor="start" x="134" y="117.2" font-family="Times,serif" font-size="14.00">set_practical_work_for_teacher</text>
</g>
<!-- SubjectsController -->
<g id="node4" class="node"><title>SubjectsController</title>
<path fill="none" stroke="black" d="M-93,419.5C-93,419.5 1,419.5 1,419.5 7,419.5 13,413.5 13,407.5 13,407.5 13,218.5 13,218.5 13,212.5 7,206.5 1,206.5 1,206.5 -93,206.5 -93,206.5 -99,206.5 -105,212.5 -105,218.5 -105,218.5 -105,407.5 -105,407.5 -105,413.5 -99,419.5 -93,419.5"/>
<text text-anchor="middle" x="-46" y="221.7" font-family="Times,serif" font-size="14.00">SubjectsController</text>
<polyline fill="none" stroke="black" points="-105,229.5 13,229.5 "/>
<text text-anchor="start" x="-97" y="244.7" font-family="Times,serif" font-size="14.00">create</text>
<text text-anchor="start" x="-97" y="259.7" font-family="Times,serif" font-size="14.00">destroy</text>
<text text-anchor="start" x="-97" y="274.7" font-family="Times,serif" font-size="14.00">edit</text>
<text text-anchor="start" x="-97" y="289.7" font-family="Times,serif" font-size="14.00">index</text>
<text text-anchor="start" x="-97" y="304.7" font-family="Times,serif" font-size="14.00">new</text>
<text text-anchor="start" x="-97" y="319.7" font-family="Times,serif" font-size="14.00">show</text>
<text text-anchor="start" x="-97" y="334.7" font-family="Times,serif" font-size="14.00">update</text>
<polyline fill="none" stroke="black" points="-105,342.5 13,342.5 "/>
<polyline fill="none" stroke="black" points="-105,366.5 13,366.5 "/>
<text text-anchor="start" x="-97" y="381.7" font-family="Times,serif" font-size="14.00">_layout</text>
<text text-anchor="start" x="-97" y="396.7" font-family="Times,serif" font-size="14.00">set_subject</text>
<text text-anchor="start" x="-97" y="411.7" font-family="Times,serif" font-size="14.00">subject_params</text>
</g>
<!-- PostsController -->
<g id="node5" class="node"><title>PostsController</title>
<path fill="none" stroke="black" d="M180.5,-483.5C180.5,-483.5 257.5,-483.5 257.5,-483.5 263.5,-483.5 269.5,-489.5 269.5,-495.5 269.5,-495.5 269.5,-684.5 269.5,-684.5 269.5,-690.5 263.5,-696.5 257.5,-696.5 257.5,-696.5 180.5,-696.5 180.5,-696.5 174.5,-696.5 168.5,-690.5 168.5,-684.5 168.5,-684.5 168.5,-495.5 168.5,-495.5 168.5,-489.5 174.5,-483.5 180.5,-483.5"/>
<text text-anchor="middle" x="219" y="-681.3" font-family="Times,serif" font-size="14.00">PostsController</text>
<polyline fill="none" stroke="black" points="168.5,-673.5 269.5,-673.5 "/>
<text text-anchor="start" x="176.5" y="-658.3" font-family="Times,serif" font-size="14.00">create</text>
<text text-anchor="start" x="176.5" y="-643.3" font-family="Times,serif" font-size="14.00">destroy</text>
<text text-anchor="start" x="176.5" y="-628.3" font-family="Times,serif" font-size="14.00">edit</text>
<text text-anchor="start" x="176.5" y="-613.3" font-family="Times,serif" font-size="14.00">index</text>
<text text-anchor="start" x="176.5" y="-598.3" font-family="Times,serif" font-size="14.00">new</text>
<text text-anchor="start" x="176.5" y="-583.3" font-family="Times,serif" font-size="14.00">show</text>
<text text-anchor="start" x="176.5" y="-568.3" font-family="Times,serif" font-size="14.00">update</text>
<polyline fill="none" stroke="black" points="168.5,-560.5 269.5,-560.5 "/>
<polyline fill="none" stroke="black" points="168.5,-536.5 269.5,-536.5 "/>
<text text-anchor="start" x="176.5" y="-521.3" font-family="Times,serif" font-size="14.00">_layout</text>
<text text-anchor="start" x="176.5" y="-506.3" font-family="Times,serif" font-size="14.00">find_post</text>
<text text-anchor="start" x="176.5" y="-491.3" font-family="Times,serif" font-size="14.00">post_params</text>
</g>
<!-- SubgroupsController -->
<g id="node6" class="node"><title>SubgroupsController</title>
<path fill="none" stroke="black" d="M-450,251.5C-450,251.5 -344,251.5 -344,251.5 -338,251.5 -332,245.5 -332,239.5 -332,239.5 -332,50.5 -332,50.5 -332,44.5 -338,38.5 -344,38.5 -344,38.5 -450,38.5 -450,38.5 -456,38.5 -462,44.5 -462,50.5 -462,50.5 -462,239.5 -462,239.5 -462,245.5 -456,251.5 -450,251.5"/>
<text text-anchor="middle" x="-397" y="53.7" font-family="Times,serif" font-size="14.00">SubgroupsController</text>
<polyline fill="none" stroke="black" points="-462,61.5 -332,61.5 "/>
<text text-anchor="start" x="-454" y="76.7" font-family="Times,serif" font-size="14.00">create</text>
<text text-anchor="start" x="-454" y="91.7" font-family="Times,serif" font-size="14.00">destroy</text>
<text text-anchor="start" x="-454" y="106.7" font-family="Times,serif" font-size="14.00">edit</text>
<text text-anchor="start" x="-454" y="121.7" font-family="Times,serif" font-size="14.00">index</text>
<text text-anchor="start" x="-454" y="136.7" font-family="Times,serif" font-size="14.00">new</text>
<text text-anchor="start" x="-454" y="151.7" font-family="Times,serif" font-size="14.00">show</text>
<text text-anchor="start" x="-454" y="166.7" font-family="Times,serif" font-size="14.00">update</text>
<polyline fill="none" stroke="black" points="-462,174.5 -332,174.5 "/>
<polyline fill="none" stroke="black" points="-462,198.5 -332,198.5 "/>
<text text-anchor="start" x="-454" y="213.7" font-family="Times,serif" font-size="14.00">_layout</text>
<text text-anchor="start" x="-454" y="228.7" font-family="Times,serif" font-size="14.00">set_subgroup</text>
<text text-anchor="start" x="-454" y="243.7" font-family="Times,serif" font-size="14.00">subgroup_params</text>
</g>
<!-- LaboratoryWorksController -->
<g id="node7" class="node"><title>LaboratoryWorksController</title>
<path fill="none" stroke="black" d="M-92.5,167C-92.5,167 80.5,167 80.5,167 86.5,167 92.5,161 92.5,155 92.5,155 92.5,-139 92.5,-139 92.5,-145 86.5,-151 80.5,-151 80.5,-151 -92.5,-151 -92.5,-151 -98.5,-151 -104.5,-145 -104.5,-139 -104.5,-139 -104.5,155 -104.5,155 -104.5,161 -98.5,167 -92.5,167"/>
<text text-anchor="middle" x="-6" y="-135.8" font-family="Times,serif" font-size="14.00">LaboratoryWorksController</text>
<polyline fill="none" stroke="black" points="-104.5,-128 92.5,-128 "/>
<text text-anchor="start" x="-96.5" y="-112.8" font-family="Times,serif" font-size="14.00">create</text>
<text text-anchor="start" x="-96.5" y="-97.8" font-family="Times,serif" font-size="14.00">create_for_teacher</text>
<text text-anchor="start" x="-96.5" y="-82.8" font-family="Times,serif" font-size="14.00">destroy</text>
<text text-anchor="start" x="-96.5" y="-67.8" font-family="Times,serif" font-size="14.00">edit</text>
<text text-anchor="start" x="-96.5" y="-52.8" font-family="Times,serif" font-size="14.00">index</text>
<text text-anchor="start" x="-96.5" y="-37.8" font-family="Times,serif" font-size="14.00">new</text>
<text text-anchor="start" x="-96.5" y="-22.8" font-family="Times,serif" font-size="14.00">show</text>
<text text-anchor="start" x="-96.5" y="-7.8" font-family="Times,serif" font-size="14.00">update</text>
<text text-anchor="start" x="-96.5" y="7.2" font-family="Times,serif" font-size="14.00">update_for_student</text>
<text text-anchor="start" x="-96.5" y="22.2" font-family="Times,serif" font-size="14.00">update_for_teacher</text>
<polyline fill="none" stroke="black" points="-104.5,30 92.5,30 "/>
<polyline fill="none" stroke="black" points="-104.5,54 92.5,54 "/>
<text text-anchor="start" x="-96.5" y="69.2" font-family="Times,serif" font-size="14.00">_layout</text>
<text text-anchor="start" x="-96.5" y="84.2" font-family="Times,serif" font-size="14.00">get_group</text>
<text text-anchor="start" x="-96.5" y="99.2" font-family="Times,serif" font-size="14.00">get_params_for_student</text>
<text text-anchor="start" x="-96.5" y="114.2" font-family="Times,serif" font-size="14.00">get_params_for_teacher</text>
<text text-anchor="start" x="-96.5" y="129.2" font-family="Times,serif" font-size="14.00">get_params_for_teacher_create</text>
<text text-anchor="start" x="-96.5" y="144.2" font-family="Times,serif" font-size="14.00">set_laboratory_work_for_student</text>
<text text-anchor="start" x="-96.5" y="159.2" font-family="Times,serif" font-size="14.00">set_laboratory_work_for_teacher</text>
</g>
<!-- SemestersController -->
<g id="node8" class="node"><title>SemestersController</title>
<path fill="none" stroke="black" d="M495,-483.5C495,-483.5 599,-483.5 599,-483.5 605,-483.5 611,-489.5 611,-495.5 611,-495.5 611,-684.5 611,-684.5 611,-690.5 605,-696.5 599,-696.5 599,-696.5 495,-696.5 495,-696.5 489,-696.5 483,-690.5 483,-684.5 483,-684.5 483,-495.5 483,-495.5 483,-489.5 489,-483.5 495,-483.5"/>
<text text-anchor="middle" x="547" y="-681.3" font-family="Times,serif" font-size="14.00">SemestersController</text>
<polyline fill="none" stroke="black" points="483,-673.5 611,-673.5 "/>
<text text-anchor="start" x="491" y="-658.3" font-family="Times,serif" font-size="14.00">create</text>
<text text-anchor="start" x="491" y="-643.3" font-family="Times,serif" font-size="14.00">destroy</text>
<text text-anchor="start" x="491" y="-628.3" font-family="Times,serif" font-size="14.00">edit</text>
<text text-anchor="start" x="491" y="-613.3" font-family="Times,serif" font-size="14.00">index</text>
<text text-anchor="start" x="491" y="-598.3" font-family="Times,serif" font-size="14.00">new</text>
<text text-anchor="start" x="491" y="-583.3" font-family="Times,serif" font-size="14.00">show</text>
<text text-anchor="start" x="491" y="-568.3" font-family="Times,serif" font-size="14.00">update</text>
<polyline fill="none" stroke="black" points="483,-560.5 611,-560.5 "/>
<polyline fill="none" stroke="black" points="483,-536.5 611,-536.5 "/>
<text text-anchor="start" x="491" y="-521.3" font-family="Times,serif" font-size="14.00">_layout</text>
<text text-anchor="start" x="491" y="-506.3" font-family="Times,serif" font-size="14.00">semester_params</text>
<text text-anchor="start" x="491" y="-491.3" font-family="Times,serif" font-size="14.00">set_semester</text>
</g>
<!-- BrigadesController -->
<g id="node9" class="node"><title>BrigadesController</title>
<path fill="none" stroke="black" d="M327,-483.5C327,-483.5 423,-483.5 423,-483.5 429,-483.5 435,-489.5 435,-495.5 435,-495.5 435,-684.5 435,-684.5 435,-690.5 429,-696.5 423,-696.5 423,-696.5 327,-696.5 327,-696.5 321,-696.5 315,-690.5 315,-684.5 315,-684.5 315,-495.5 315,-495.5 315,-489.5 321,-483.5 327,-483.5"/>
<text text-anchor="middle" x="375" y="-681.3" font-family="Times,serif" font-size="14.00">BrigadesController</text>
<polyline fill="none" stroke="black" points="315,-673.5 435,-673.5 "/>
<text text-anchor="start" x="323" y="-658.3" font-family="Times,serif" font-size="14.00">create</text>
<text text-anchor="start" x="323" y="-643.3" font-family="Times,serif" font-size="14.00">destroy</text>
<text text-anchor="start" x="323" y="-628.3" font-family="Times,serif" font-size="14.00">edit</text>
<text text-anchor="start" x="323" y="-613.3" font-family="Times,serif" font-size="14.00">index</text>
<text text-anchor="start" x="323" y="-598.3" font-family="Times,serif" font-size="14.00">new</text>
<text text-anchor="start" x="323" y="-583.3" font-family="Times,serif" font-size="14.00">show</text>
<text text-anchor="start" x="323" y="-568.3" font-family="Times,serif" font-size="14.00">update</text>
<polyline fill="none" stroke="black" points="315,-560.5 435,-560.5 "/>
<polyline fill="none" stroke="black" points="315,-536.5 435,-536.5 "/>
<text text-anchor="start" x="323" y="-521.3" font-family="Times,serif" font-size="14.00">_layout</text>
<text text-anchor="start" x="323" y="-506.3" font-family="Times,serif" font-size="14.00">brigade_params</text>
<text text-anchor="start" x="323" y="-491.3" font-family="Times,serif" font-size="14.00">set_brigade</text>
</g>
<!-- WorkNotificationsController -->
<g id="node10" class="node"><title>WorkNotificationsController</title>
<path fill="none" stroke="black" d="M516,104C516,104 666,104 666,104 672,104 678,98 678,92 678,92 678,8 678,8 678,2 672,-4 666,-4 666,-4 516,-4 516,-4 510,-4 504,2 504,8 504,8 504,92 504,92 504,98 510,104 516,104"/>
<text text-anchor="middle" x="591" y="11.2" font-family="Times,serif" font-size="14.00">WorkNotificationsController</text>
<polyline fill="none" stroke="black" points="504,19 678,19 "/>
<text text-anchor="start" x="512" y="34.2" font-family="Times,serif" font-size="14.00">notify_about_expired_works</text>
<text text-anchor="start" x="512" y="49.2" font-family="Times,serif" font-size="14.00">notify_about_near_works</text>
<polyline fill="none" stroke="black" points="504,57 678,57 "/>
<polyline fill="none" stroke="black" points="504,81 678,81 "/>
<text text-anchor="start" x="512" y="96.2" font-family="Times,serif" font-size="14.00">_layout</text>
</g>
<!-- AcademicPlansController -->
<g id="node11" class="node"><title>AcademicPlansController</title>
<path fill="none" stroke="black" d="M-281.5,251.5C-281.5,251.5 -148.5,251.5 -148.5,251.5 -142.5,251.5 -136.5,245.5 -136.5,239.5 -136.5,239.5 -136.5,50.5 -136.5,50.5 -136.5,44.5 -142.5,38.5 -148.5,38.5 -148.5,38.5 -281.5,38.5 -281.5,38.5 -287.5,38.5 -293.5,44.5 -293.5,50.5 -293.5,50.5 -293.5,239.5 -293.5,239.5 -293.5,245.5 -287.5,251.5 -281.5,251.5"/>
<text text-anchor="middle" x="-215" y="53.7" font-family="Times,serif" font-size="14.00">AcademicPlansController</text>
<polyline fill="none" stroke="black" points="-293.5,61.5 -136.5,61.5 "/>
<text text-anchor="start" x="-285.5" y="76.7" font-family="Times,serif" font-size="14.00">create</text>
<text text-anchor="start" x="-285.5" y="91.7" font-family="Times,serif" font-size="14.00">destroy</text>
<text text-anchor="start" x="-285.5" y="106.7" font-family="Times,serif" font-size="14.00">edit</text>
<text text-anchor="start" x="-285.5" y="121.7" font-family="Times,serif" font-size="14.00">index</text>
<text text-anchor="start" x="-285.5" y="136.7" font-family="Times,serif" font-size="14.00">new</text>
<text text-anchor="start" x="-285.5" y="151.7" font-family="Times,serif" font-size="14.00">show</text>
<text text-anchor="start" x="-285.5" y="166.7" font-family="Times,serif" font-size="14.00">update</text>
<polyline fill="none" stroke="black" points="-293.5,174.5 -136.5,174.5 "/>
<polyline fill="none" stroke="black" points="-293.5,198.5 -136.5,198.5 "/>
<text text-anchor="start" x="-285.5" y="213.7" font-family="Times,serif" font-size="14.00">_layout</text>
<text text-anchor="start" x="-285.5" y="228.7" font-family="Times,serif" font-size="14.00">academic_plan_params</text>
<text text-anchor="start" x="-285.5" y="243.7" font-family="Times,serif" font-size="14.00">set_academic_plan</text>
</g>
<!-- CampusController -->
<g id="node12" class="node"><title>CampusController</title>
<path fill="none" stroke="black" d="M-449.5,-462.5C-449.5,-462.5 -356.5,-462.5 -356.5,-462.5 -350.5,-462.5 -344.5,-468.5 -344.5,-474.5 -344.5,-474.5 -344.5,-663.5 -344.5,-663.5 -344.5,-669.5 -350.5,-675.5 -356.5,-675.5 -356.5,-675.5 -449.5,-675.5 -449.5,-675.5 -455.5,-675.5 -461.5,-669.5 -461.5,-663.5 -461.5,-663.5 -461.5,-474.5 -461.5,-474.5 -461.5,-468.5 -455.5,-462.5 -449.5,-462.5"/>
<text text-anchor="middle" x="-403" y="-660.3" font-family="Times,serif" font-size="14.00">CampusController</text>
<polyline fill="none" stroke="black" points="-461.5,-652.5 -344.5,-652.5 "/>
<text text-anchor="start" x="-453.5" y="-637.3" font-family="Times,serif" font-size="14.00">create</text>
<text text-anchor="start" x="-453.5" y="-622.3" font-family="Times,serif" font-size="14.00">destroy</text>
<text text-anchor="start" x="-453.5" y="-607.3" font-family="Times,serif" font-size="14.00">edit</text>
<text text-anchor="start" x="-453.5" y="-592.3" font-family="Times,serif" font-size="14.00">index</text>
<text text-anchor="start" x="-453.5" y="-577.3" font-family="Times,serif" font-size="14.00">new</text>
<text text-anchor="start" x="-453.5" y="-562.3" font-family="Times,serif" font-size="14.00">show</text>
<text text-anchor="start" x="-453.5" y="-547.3" font-family="Times,serif" font-size="14.00">update</text>
<polyline fill="none" stroke="black" points="-461.5,-539.5 -344.5,-539.5 "/>
<polyline fill="none" stroke="black" points="-461.5,-515.5 -344.5,-515.5 "/>
<text text-anchor="start" x="-453.5" y="-500.3" font-family="Times,serif" font-size="14.00">_layout</text>
<text text-anchor="start" x="-453.5" y="-485.3" font-family="Times,serif" font-size="14.00">campus_params</text>
<text text-anchor="start" x="-453.5" y="-470.3" font-family="Times,serif" font-size="14.00">set_campus</text>
</g>
<!-- ClassroomsController -->
<g id="node13" class="node"><title>ClassroomsController</title>
<path fill="none" stroke="black" d="M138,377.5C138,377.5 250,377.5 250,377.5 256,377.5 262,371.5 262,365.5 262,365.5 262,176.5 262,176.5 262,170.5 256,164.5 250,164.5 250,164.5 138,164.5 138,164.5 132,164.5 126,170.5 126,176.5 126,176.5 126,365.5 126,365.5 126,371.5 132,377.5 138,377.5"/>
<text text-anchor="middle" x="194" y="179.7" font-family="Times,serif" font-size="14.00">ClassroomsController</text>
<polyline fill="none" stroke="black" points="126,187.5 262,187.5 "/>
<text text-anchor="start" x="134" y="202.7" font-family="Times,serif" font-size="14.00">create</text>
<text text-anchor="start" x="134" y="217.7" font-family="Times,serif" font-size="14.00">destroy</text>
<text text-anchor="start" x="134" y="232.7" font-family="Times,serif" font-size="14.00">edit</text>
<text text-anchor="start" x="134" y="247.7" font-family="Times,serif" font-size="14.00">index</text>
<text text-anchor="start" x="134" y="262.7" font-family="Times,serif" font-size="14.00">new</text>
<text text-anchor="start" x="134" y="277.7" font-family="Times,serif" font-size="14.00">show</text>
<text text-anchor="start" x="134" y="292.7" font-family="Times,serif" font-size="14.00">update</text>
<polyline fill="none" stroke="black" points="126,300.5 262,300.5 "/>
<polyline fill="none" stroke="black" points="126,324.5 262,324.5 "/>
<text text-anchor="start" x="134" y="339.7" font-family="Times,serif" font-size="14.00">_layout</text>
<text text-anchor="start" x="134" y="354.7" font-family="Times,serif" font-size="14.00">classroom_params</text>
<text text-anchor="start" x="134" y="369.7" font-family="Times,serif" font-size="14.00">set_classroom</text>
</g>
<!-- ProjectsController -->
<g id="node14" class="node"><title>ProjectsController</title>
<path fill="none" stroke="black" d="M-471,-0.5C-471,-0.5 -379,-0.5 -379,-0.5 -373,-0.5 -367,-6.5 -367,-12.5 -367,-12.5 -367,-201.5 -367,-201.5 -367,-207.5 -373,-213.5 -379,-213.5 -379,-213.5 -471,-213.5 -471,-213.5 -477,-213.5 -483,-207.5 -483,-201.5 -483,-201.5 -483,-12.5 -483,-12.5 -483,-6.5 -477,-0.5 -471,-0.5"/>
<text text-anchor="middle" x="-425" y="-198.3" font-family="Times,serif" font-size="14.00">ProjectsController</text>
<polyline fill="none" stroke="black" points="-483,-190.5 -367,-190.5 "/>
<text text-anchor="start" x="-475" y="-175.3" font-family="Times,serif" font-size="14.00">create</text>
<text text-anchor="start" x="-475" y="-160.3" font-family="Times,serif" font-size="14.00">destroy</text>
<text text-anchor="start" x="-475" y="-145.3" font-family="Times,serif" font-size="14.00">edit</text>
<text text-anchor="start" x="-475" y="-130.3" font-family="Times,serif" font-size="14.00">index</text>
<text text-anchor="start" x="-475" y="-115.3" font-family="Times,serif" font-size="14.00">new</text>
<text text-anchor="start" x="-475" y="-100.3" font-family="Times,serif" font-size="14.00">show</text>
<text text-anchor="start" x="-475" y="-85.3" font-family="Times,serif" font-size="14.00">update</text>
<polyline fill="none" stroke="black" points="-483,-77.5 -367,-77.5 "/>
<polyline fill="none" stroke="black" points="-483,-53.5 -367,-53.5 "/>
<text text-anchor="start" x="-475" y="-38.3" font-family="Times,serif" font-size="14.00">_layout</text>
<text text-anchor="start" x="-475" y="-23.3" font-family="Times,serif" font-size="14.00">project_params</text>
<text text-anchor="start" x="-475" y="-8.3" font-family="Times,serif" font-size="14.00">set_project</text>
</g>
<!-- TeachersProjectMembershipsController -->
<g id="node15" class="node"><title>TeachersProjectMembershipsController</title>
<path fill="none" stroke="black" d="M243,-231.5C243,-231.5 453,-231.5 453,-231.5 459,-231.5 465,-237.5 465,-243.5 465,-243.5 465,-432.5 465,-432.5 465,-438.5 459,-444.5 453,-444.5 453,-444.5 243,-444.5 243,-444.5 237,-444.5 231,-438.5 231,-432.5 231,-432.5 231,-243.5 231,-243.5 231,-237.5 237,-231.5 243,-231.5"/>
<text text-anchor="middle" x="348" y="-429.3" font-family="Times,serif" font-size="14.00">TeachersProjectMembershipsController</text>
<polyline fill="none" stroke="black" points="231,-421.5 465,-421.5 "/>
<text text-anchor="start" x="239" y="-406.3" font-family="Times,serif" font-size="14.00">create</text>
<text text-anchor="start" x="239" y="-391.3" font-family="Times,serif" font-size="14.00">destroy</text>
<text text-anchor="start" x="239" y="-376.3" font-family="Times,serif" font-size="14.00">edit</text>
<text text-anchor="start" x="239" y="-361.3" font-family="Times,serif" font-size="14.00">index</text>
<text text-anchor="start" x="239" y="-346.3" font-family="Times,serif" font-size="14.00">new</text>
<text text-anchor="start" x="239" y="-331.3" font-family="Times,serif" font-size="14.00">show</text>
<text text-anchor="start" x="239" y="-316.3" font-family="Times,serif" font-size="14.00">update</text>
<polyline fill="none" stroke="black" points="231,-308.5 465,-308.5 "/>
<polyline fill="none" stroke="black" points="231,-284.5 465,-284.5 "/>
<text text-anchor="start" x="239" y="-269.3" font-family="Times,serif" font-size="14.00">_layout</text>
<text text-anchor="start" x="239" y="-254.3" font-family="Times,serif" font-size="14.00">set_teachers_project_membership</text>
<text text-anchor="start" x="239" y="-239.3" font-family="Times,serif" font-size="14.00">teachers_project_membership_params</text>
</g>
<!-- ClassesTimetablesController -->
<g id="node16" class="node"><title>ClassesTimetablesController</title>
<path fill="none" stroke="black" d="M-302.5,-315.5C-302.5,-315.5 -153.5,-315.5 -153.5,-315.5 -147.5,-315.5 -141.5,-321.5 -141.5,-327.5 -141.5,-327.5 -141.5,-516.5 -141.5,-516.5 -141.5,-522.5 -147.5,-528.5 -153.5,-528.5 -153.5,-528.5 -302.5,-528.5 -302.5,-528.5 -308.5,-528.5 -314.5,-522.5 -314.5,-516.5 -314.5,-516.5 -314.5,-327.5 -314.5,-327.5 -314.5,-321.5 -308.5,-315.5 -302.5,-315.5"/>
<text text-anchor="middle" x="-228" y="-513.3" font-family="Times,serif" font-size="14.00">ClassesTimetablesController</text>
<polyline fill="none" stroke="black" points="-314.5,-505.5 -141.5,-505.5 "/>
<text text-anchor="start" x="-306.5" y="-490.3" font-family="Times,serif" font-size="14.00">create</text>
<text text-anchor="start" x="-306.5" y="-475.3" font-family="Times,serif" font-size="14.00">destroy</text>
<text text-anchor="start" x="-306.5" y="-460.3" font-family="Times,serif" font-size="14.00">edit</text>
<text text-anchor="start" x="-306.5" y="-445.3" font-family="Times,serif" font-size="14.00">index</text>
<text text-anchor="start" x="-306.5" y="-430.3" font-family="Times,serif" font-size="14.00">new</text>
<text text-anchor="start" x="-306.5" y="-415.3" font-family="Times,serif" font-size="14.00">show</text>
<text text-anchor="start" x="-306.5" y="-400.3" font-family="Times,serif" font-size="14.00">update</text>
<polyline fill="none" stroke="black" points="-314.5,-392.5 -141.5,-392.5 "/>
<polyline fill="none" stroke="black" points="-314.5,-368.5 -141.5,-368.5 "/>
<text text-anchor="start" x="-306.5" y="-353.3" font-family="Times,serif" font-size="14.00">_layout</text>
<text text-anchor="start" x="-306.5" y="-338.3" font-family="Times,serif" font-size="14.00">classes_timetable_params</text>
<text text-anchor="start" x="-306.5" y="-323.3" font-family="Times,serif" font-size="14.00">set_classes_timetable</text>
</g>
<!-- RaitingsController -->
<g id="node17" class="node"><title>RaitingsController</title>
<path fill="none" stroke="black" d="M-470.5,482C-470.5,482 -377.5,482 -377.5,482 -371.5,482 -365.5,476 -365.5,470 -365.5,470 -365.5,296 -365.5,296 -365.5,290 -371.5,284 -377.5,284 -377.5,284 -470.5,284 -470.5,284 -476.5,284 -482.5,290 -482.5,296 -482.5,296 -482.5,470 -482.5,470 -482.5,476 -476.5,482 -470.5,482"/>
<text text-anchor="middle" x="-424" y="299.2" font-family="Times,serif" font-size="14.00">RaitingsController</text>
<polyline fill="none" stroke="black" points="-482.5,307 -365.5,307 "/>
<text text-anchor="start" x="-474.5" y="322.2" font-family="Times,serif" font-size="14.00">create</text>
<text text-anchor="start" x="-474.5" y="337.2" font-family="Times,serif" font-size="14.00">data</text>
<text text-anchor="start" x="-474.5" y="352.2" font-family="Times,serif" font-size="14.00">data=</text>
<text text-anchor="start" x="-474.5" y="367.2" font-family="Times,serif" font-size="14.00">index</text>
<text text-anchor="start" x="-474.5" y="382.2" font-family="Times,serif" font-size="14.00">raiting</text>
<text text-anchor="start" x="-474.5" y="397.2" font-family="Times,serif" font-size="14.00">raiting=</text>
<text text-anchor="start" x="-474.5" y="412.2" font-family="Times,serif" font-size="14.00">students_groups</text>
<text text-anchor="start" x="-474.5" y="427.2" font-family="Times,serif" font-size="14.00">students_groups=</text>
<polyline fill="none" stroke="black" points="-482.5,435 -365.5,435 "/>
<polyline fill="none" stroke="black" points="-482.5,459 -365.5,459 "/>
<text text-anchor="start" x="-474.5" y="474.2" font-family="Times,serif" font-size="14.00">_layout</text>
</g>
<!-- ChatRoomsController -->
<g id="node18" class="node"><title>ChatRoomsController</title>
<path fill="none" stroke="black" d="M-323.5,440.5C-323.5,440.5 -210.5,440.5 -210.5,440.5 -204.5,440.5 -198.5,434.5 -198.5,428.5 -198.5,428.5 -198.5,299.5 -198.5,299.5 -198.5,293.5 -204.5,287.5 -210.5,287.5 -210.5,287.5 -323.5,287.5 -323.5,287.5 -329.5,287.5 -335.5,293.5 -335.5,299.5 -335.5,299.5 -335.5,428.5 -335.5,428.5 -335.5,434.5 -329.5,440.5 -323.5,440.5"/>
<text text-anchor="middle" x="-267" y="302.7" font-family="Times,serif" font-size="14.00">ChatRoomsController</text>
<polyline fill="none" stroke="black" points="-335.5,310.5 -198.5,310.5 "/>
<text text-anchor="start" x="-327.5" y="325.7" font-family="Times,serif" font-size="14.00">create</text>
<text text-anchor="start" x="-327.5" y="340.7" font-family="Times,serif" font-size="14.00">index</text>
<text text-anchor="start" x="-327.5" y="355.7" font-family="Times,serif" font-size="14.00">new</text>
<text text-anchor="start" x="-327.5" y="370.7" font-family="Times,serif" font-size="14.00">show</text>
<polyline fill="none" stroke="black" points="-335.5,378.5 -198.5,378.5 "/>
<polyline fill="none" stroke="black" points="-335.5,402.5 -198.5,402.5 "/>
<text text-anchor="start" x="-327.5" y="417.7" font-family="Times,serif" font-size="14.00">_layout</text>
<text text-anchor="start" x="-327.5" y="432.7" font-family="Times,serif" font-size="14.00">chat_room_params</text>
</g>
<!-- BrigadeMembershipsController -->
<g id="node19" class="node"><title>BrigadeMembershipsController</title>
<path fill="none" stroke="black" d="M-324,-1C-324,-1 -158,-1 -158,-1 -152,-1 -146,-7 -146,-13 -146,-13 -146,-187 -146,-187 -146,-193 -152,-199 -158,-199 -158,-199 -324,-199 -324,-199 -330,-199 -336,-193 -336,-187 -336,-187 -336,-13 -336,-13 -336,-7 -330,-1 -324,-1"/>
<text text-anchor="middle" x="-241" y="-183.8" font-family="Times,serif" font-size="14.00">BrigadeMembershipsController</text>
<polyline fill="none" stroke="black" points="-336,-176 -146,-176 "/>
<text text-anchor="start" x="-328" y="-160.8" font-family="Times,serif" font-size="14.00">create</text>
<text text-anchor="start" x="-328" y="-145.8" font-family="Times,serif" font-size="14.00">destroy</text>
<text text-anchor="start" x="-328" y="-130.8" font-family="Times,serif" font-size="14.00">edit</text>
<text text-anchor="start" x="-328" y="-115.8" font-family="Times,serif" font-size="14.00">index</text>
<text text-anchor="start" x="-328" y="-100.8" font-family="Times,serif" font-size="14.00">new</text>
<text text-anchor="start" x="-328" y="-85.8" font-family="Times,serif" font-size="14.00">show</text>
<text text-anchor="start" x="-328" y="-70.8" font-family="Times,serif" font-size="14.00">update</text>
<polyline fill="none" stroke="black" points="-336,-63 -146,-63 "/>
<polyline fill="none" stroke="black" points="-336,-39 -146,-39 "/>
<text text-anchor="start" x="-328" y="-23.8" font-family="Times,serif" font-size="14.00">_layout</text>
<text text-anchor="start" x="-328" y="-8.8" font-family="Times,serif" font-size="14.00">brigade_membership_params</text>
</g>
<!-- LessonsController -->
<g id="node20" class="node"><title>LessonsController</title>
<path fill="none" stroke="black" d="M-92.5,-189.5C-92.5,-189.5 80.5,-189.5 80.5,-189.5 86.5,-189.5 92.5,-195.5 92.5,-201.5 92.5,-201.5 92.5,-450.5 92.5,-450.5 92.5,-456.5 86.5,-462.5 80.5,-462.5 80.5,-462.5 -92.5,-462.5 -92.5,-462.5 -98.5,-462.5 -104.5,-456.5 -104.5,-450.5 -104.5,-450.5 -104.5,-201.5 -104.5,-201.5 -104.5,-195.5 -98.5,-189.5 -92.5,-189.5"/>
<text text-anchor="middle" x="-6" y="-447.3" font-family="Times,serif" font-size="14.00">LessonsController</text>
<polyline fill="none" stroke="black" points="-104.5,-439.5 92.5,-439.5 "/>
<text text-anchor="start" x="-96.5" y="-424.3" font-family="Times,serif" font-size="14.00">create</text>
<text text-anchor="start" x="-96.5" y="-409.3" font-family="Times,serif" font-size="14.00">destroy</text>
<text text-anchor="start" x="-96.5" y="-394.3" font-family="Times,serif" font-size="14.00">edit</text>
<text text-anchor="start" x="-96.5" y="-379.3" font-family="Times,serif" font-size="14.00">index</text>
<text text-anchor="start" x="-96.5" y="-364.3" font-family="Times,serif" font-size="14.00">new</text>
<text text-anchor="start" x="-96.5" y="-349.3" font-family="Times,serif" font-size="14.00">show</text>
<text text-anchor="start" x="-96.5" y="-334.3" font-family="Times,serif" font-size="14.00">update</text>
<polyline fill="none" stroke="black" points="-104.5,-326.5 92.5,-326.5 "/>
<polyline fill="none" stroke="black" points="-104.5,-302.5 92.5,-302.5 "/>
<text text-anchor="start" x="-96.5" y="-287.3" font-family="Times,serif" font-size="14.00">_layout</text>
<text text-anchor="start" x="-96.5" y="-272.3" font-family="Times,serif" font-size="14.00">lesson_params</text>
<text text-anchor="start" x="-96.5" y="-257.3" font-family="Times,serif" font-size="14.00">set_classes_timetable</text>
<text text-anchor="start" x="-96.5" y="-242.3" font-family="Times,serif" font-size="14.00">set_lesson_for_classes_timetable</text>
<text text-anchor="start" x="-96.5" y="-227.3" font-family="Times,serif" font-size="14.00">set_lesson_for_current_teacher</text>
<text text-anchor="start" x="-96.5" y="-212.3" font-family="Times,serif" font-size="14.00">set_lesson_for_teacher</text>
<text text-anchor="start" x="-96.5" y="-197.3" font-family="Times,serif" font-size="14.00">set_teacher</text>
</g>
<!-- ApplicationController -->
<g id="node21" class="node"><title>ApplicationController</title>
<path fill="none" stroke="black" d="M75,503.5C75,503.5 245,503.5 245,503.5 251,503.5 257,497.5 257,491.5 257,491.5 257,422.5 257,422.5 257,416.5 251,410.5 245,410.5 245,410.5 75,410.5 75,410.5 69,410.5 63,416.5 63,422.5 63,422.5 63,491.5 63,491.5 63,497.5 69,503.5 75,503.5"/>
<text text-anchor="middle" x="160" y="425.7" font-family="Times,serif" font-size="14.00">ApplicationController</text>
<polyline fill="none" stroke="black" points="63,433.5 257,433.5 "/>
<polyline fill="none" stroke="black" points="63,457.5 257,457.5 "/>
<text text-anchor="start" x="71" y="472.7" font-family="Times,serif" font-size="14.00">configure_permitted_parameters</text>
<polyline fill="none" stroke="black" points="63,480.5 257,480.5 "/>
<text text-anchor="start" x="71" y="495.7" font-family="Times,serif" font-size="14.00">_layout</text>
</g>
<!-- StudentsProjectMembershipsController -->
<g id="node22" class="node"><title>StudentsProjectMembershipsController</title>
<path fill="none" stroke="black" d="M369,356.5C369,356.5 577,356.5 577,356.5 583,356.5 589,350.5 589,344.5 589,344.5 589,155.5 589,155.5 589,149.5 583,143.5 577,143.5 577,143.5 369,143.5 369,143.5 363,143.5 357,149.5 357,155.5 357,155.5 357,344.5 357,344.5 357,350.5 363,356.5 369,356.5"/>
<text text-anchor="middle" x="473" y="158.7" font-family="Times,serif" font-size="14.00">StudentsProjectMembershipsController</text>
<polyline fill="none" stroke="black" points="357,166.5 589,166.5 "/>
<text text-anchor="start" x="365" y="181.7" font-family="Times,serif" font-size="14.00">create</text>
<text text-anchor="start" x="365" y="196.7" font-family="Times,serif" font-size="14.00">destroy</text>
<text text-anchor="start" x="365" y="211.7" font-family="Times,serif" font-size="14.00">edit</text>
<text text-anchor="start" x="365" y="226.7" font-family="Times,serif" font-size="14.00">index</text>
<text text-anchor="start" x="365" y="241.7" font-family="Times,serif" font-size="14.00">new</text>
<text text-anchor="start" x="365" y="256.7" font-family="Times,serif" font-size="14.00">show</text>
<text text-anchor="start" x="365" y="271.7" font-family="Times,serif" font-size="14.00">update</text>
<polyline fill="none" stroke="black" points="357,279.5 589,279.5 "/>
<polyline fill="none" stroke="black" points="357,303.5 589,303.5 "/>
<text text-anchor="start" x="365" y="318.7" font-family="Times,serif" font-size="14.00">_layout</text>
<text text-anchor="start" x="365" y="333.7" font-family="Times,serif" font-size="14.00">set_students_project_membership</text>
<text text-anchor="start" x="365" y="348.7" font-family="Times,serif" font-size="14.00">students_project_membership_params</text>
</g>
</g>
</svg>
