<?xml version="1.0" encoding="UTF-8" standalone="no"?>
<!DOCTYPE svg PUBLIC "-//W3C//DTD SVG 1.1//EN"
 "http://www.w3.org/Graphics/SVG/1.1/DTD/svg11.dtd">
<!-- Generated by graphviz version 2.38.0 (20140413.2041)
 -->
<!-- Title: models_diagram Pages: 1 -->
<svg width="1520pt" height="538pt"
 viewBox="0.00 0.00 1520.24 538.00" xmlns="http://www.w3.org/2000/svg" xmlns:xlink="http://www.w3.org/1999/xlink">
<g id="graph0" class="graph" transform="scale(1 1) rotate(0) translate(4 534)">
<title>models_diagram</title>
<polygon fill="none" stroke="none" points="-4,4 -4,-534 1516.24,-534 1516.24,4 -4,4"/>
<!-- _diagram_info -->
<g id="node1" class="node"><title>_diagram_info</title>
<text text-anchor="start" x="268.745" y="-515.6" font-family="Times,serif" font-size="13.00">Models diagram</text>
<text text-anchor="start" x="268.745" y="-501.6" font-family="Times,serif" font-size="13.00">Date: May 21 2018 &#45; 03:37</text>
<text text-anchor="start" x="268.745" y="-487.6" font-family="Times,serif" font-size="13.00">Migration version: 20180521002547</text>
<text text-anchor="start" x="268.745" y="-473.6" font-family="Times,serif" font-size="13.00">Generated by RailRoady 1.5.3</text>
<text text-anchor="start" x="268.745" y="-459.6" font-family="Times,serif" font-size="13.00">http://railroady.prestonlee.com</text>
</g>
<!-- StudentsProjectMembership -->
<g id="node2" class="node"><title>StudentsProjectMembership</title>
<ellipse fill="none" stroke="black" cx="572.745" cy="-91" rx="111.28" ry="18"/>
<text text-anchor="middle" x="572.745" y="-87.3" font-family="Times,serif" font-size="14.00">StudentsProjectMembership</text>
</g>
<!-- Campus -->
<g id="node3" class="node"><title>Campus</title>
<ellipse fill="none" stroke="black" cx="1108.74" cy="-164" rx="40.0939" ry="18"/>
<text text-anchor="middle" x="1108.74" y="-160.3" font-family="Times,serif" font-size="14.00">Campus</text>
</g>
<!-- Classroom -->
<g id="node10" class="node"><title>Classroom</title>
<ellipse fill="none" stroke="black" cx="1108.74" cy="-91" rx="48.9926" ry="18"/>
<text text-anchor="middle" x="1108.74" y="-87.3" font-family="Times,serif" font-size="14.00">Classroom</text>
</g>
<!-- Campus&#45;&gt;Classroom -->
<g id="edge1" class="edge"><title>Campus&#45;&gt;Classroom</title>
<path fill="none" stroke="#d3436b" d="M1108.74,-137.791C1108.74,-131.832 1108.74,-125.45 1108.74,-119.399"/>
<ellipse fill="none" stroke="#d3436b" cx="1108.74" cy="-141.813" rx="4" ry="4"/>
<polygon fill="#d3436b" stroke="#d3436b" points="1108.74,-119.029 1113.24,-109.029 1108.74,-114.029 1108.74,-109.029 1108.74,-109.029 1108.74,-109.029 1108.74,-114.029 1104.24,-109.029 1108.74,-119.029 1108.74,-119.029"/>
</g>
<!-- ChatRoom -->
<g id="node4" class="node"><title>ChatRoom</title>
<ellipse fill="none" stroke="black" cx="586.745" cy="-164" rx="49.2915" ry="18"/>
<text text-anchor="middle" x="586.745" y="-160.3" font-family="Times,serif" font-size="14.00">ChatRoom</text>
</g>
<!-- Message -->
<g id="node12" class="node"><title>Message</title>
<ellipse fill="none" stroke="black" cx="781.745" cy="-91" rx="42.4939" ry="18"/>
<text text-anchor="middle" x="781.745" y="-87.3" font-family="Times,serif" font-size="14.00">Message</text>
</g>
<!-- ChatRoom&#45;&gt;Message -->
<g id="edge2" class="edge"><title>ChatRoom&#45;&gt;Message</title>
<path fill="none" stroke="#1095e6" d="M616.705,-143.547C626.883,-137.58 638.524,-131.428 649.745,-127 682.034,-114.258 692.232,-118.046 725.745,-109 730.054,-107.837 734.535,-106.572 738.999,-105.275"/>
<ellipse fill="none" stroke="#1095e6" cx="613.008" cy="-145.771" rx="4.00002" ry="4.00002"/>
<polygon fill="#1095e6" stroke="#1095e6" points="739.089,-105.248 749.955,-106.725 743.883,-103.829 748.678,-102.41 748.678,-102.41 748.678,-102.41 743.883,-103.829 747.4,-98.0952 739.089,-105.248 739.089,-105.248"/>
</g>
<!-- LaboratoryWork -->
<g id="node5" class="node"><title>LaboratoryWork</title>
<ellipse fill="none" stroke="black" cx="711.745" cy="-18" rx="70.3881" ry="18"/>
<text text-anchor="middle" x="711.745" y="-14.3" font-family="Times,serif" font-size="14.00">LaboratoryWork</text>
</g>
<!-- Raiting -->
<g id="node6" class="node"><title>Raiting</title>
<ellipse fill="none" stroke="black" cx="860.745" cy="-491" rx="36.2938" ry="18"/>
<text text-anchor="middle" x="860.745" y="-487.3" font-family="Times,serif" font-size="14.00">Raiting</text>
</g>
<!-- AcademicPlan -->
<g id="node7" class="node"><title>AcademicPlan</title>
<ellipse fill="none" stroke="black" cx="471.745" cy="-324" rx="62.2891" ry="18"/>
<text text-anchor="middle" x="471.745" y="-320.3" font-family="Times,serif" font-size="14.00">AcademicPlan</text>
</g>
<!-- AcademicPlan&#45;&gt;LaboratoryWork -->
<g id="edge3" class="edge"><title>AcademicPlan&#45;&gt;LaboratoryWork</title>
<path fill="none" stroke="#769d2a" d="M540.421,-319.277C664.599,-310.838 917.889,-285.212 963.745,-215 1020.77,-127.692 857.858,-62.8493 767.492,-34.6091"/>
<ellipse fill="none" stroke="#769d2a" cx="536.423" cy="-319.542" rx="4" ry="4"/>
<polygon fill="#769d2a" stroke="#769d2a" points="767.476,-34.6043 759.238,-27.3668 762.696,-33.1364 757.917,-31.6686 757.917,-31.6686 757.917,-31.6686 762.696,-33.1364 756.595,-35.9703 767.476,-34.6043 767.476,-34.6043"/>
</g>
<!-- Student -->
<g id="node14" class="node"><title>Student</title>
<ellipse fill="none" stroke="black" cx="471.745" cy="-251" rx="37.8943" ry="18"/>
<text text-anchor="middle" x="471.745" y="-247.3" font-family="Times,serif" font-size="14.00">Student</text>
</g>
<!-- AcademicPlan&#45;&gt;Student -->
<g id="edge5" class="edge"><title>AcademicPlan&#45;&gt;Student</title>
<path fill="none" stroke="#ca3178" d="M471.745,-295.753C471.745,-290.276 471.745,-284.521 471.745,-279.051"/>
<polygon fill="#ca3178" stroke="#ca3178" points="471.745,-295.813 467.245,-305.813 471.745,-300.813 471.745,-305.813 471.745,-305.813 471.745,-305.813 471.745,-300.813 476.245,-305.813 471.745,-295.813 471.745,-295.813"/>
<polygon fill="#ca3178" stroke="#ca3178" points="471.745,-279.029 476.245,-269.029 471.745,-274.029 471.745,-269.029 471.745,-269.029 471.745,-269.029 471.745,-274.029 467.245,-269.029 471.745,-279.029 471.745,-279.029"/>
</g>
<!-- PracticalWork -->
<g id="node26" class="node"><title>PracticalWork</title>
<ellipse fill="none" stroke="black" cx="61.7445" cy="-18" rx="61.99" ry="18"/>
<text text-anchor="middle" x="61.7445" y="-14.3" font-family="Times,serif" font-size="14.00">PracticalWork</text>
</g>
<!-- AcademicPlan&#45;&gt;PracticalWork -->
<g id="edge4" class="edge"><title>AcademicPlan&#45;&gt;PracticalWork</title>
<path fill="none" stroke="#342f99" d="M403.484,-318.073C286.871,-308.731 61.7445,-286.259 61.7445,-252 61.7445,-252 61.7445,-252 61.7445,-90 61.7445,-75.6513 61.7445,-59.6715 61.7445,-46.5107"/>
<ellipse fill="none" stroke="#342f99" cx="407.7" cy="-318.407" rx="4" ry="4"/>
<polygon fill="#342f99" stroke="#342f99" points="61.7446,-46.2164 66.2445,-36.2163 61.7446,-41.2164 61.7445,-36.2164 61.7445,-36.2164 61.7445,-36.2164 61.7446,-41.2164 57.2445,-36.2164 61.7446,-46.2164 61.7446,-46.2164"/>
</g>
<!-- Teacher -->
<g id="node28" class="node"><title>Teacher</title>
<ellipse fill="none" stroke="black" cx="180.745" cy="-91" rx="38.9931" ry="18"/>
<text text-anchor="middle" x="180.745" y="-87.3" font-family="Times,serif" font-size="14.00">Teacher</text>
</g>
<!-- AcademicPlan&#45;&gt;Teacher -->
<g id="edge6" class="edge"><title>AcademicPlan&#45;&gt;Teacher</title>
<path fill="none" stroke="#290731" d="M409.055,-312.613C318.396,-296.168 157.785,-261.206 123.745,-215 100.366,-183.267 131.968,-140.414 156.621,-114.571"/>
<polygon fill="#290731" stroke="#290731" points="409.102,-312.621 418.152,-318.813 414.024,-313.502 418.945,-314.384 418.945,-314.384 418.945,-314.384 414.024,-313.502 419.739,-309.954 409.102,-312.621 409.102,-312.621"/>
<polygon fill="#290731" stroke="#290731" points="156.633,-114.558 166.861,-110.603 160.146,-111 163.659,-107.442 163.659,-107.442 163.659,-107.442 160.146,-111 160.457,-104.28 156.633,-114.558 156.633,-114.558"/>
</g>
<!-- Subgroup -->
<g id="node8" class="node"><title>Subgroup</title>
<ellipse fill="none" stroke="black" cx="987.745" cy="-324" rx="44.6926" ry="18"/>
<text text-anchor="middle" x="987.745" y="-320.3" font-family="Times,serif" font-size="14.00">Subgroup</text>
</g>
<!-- Subgroup&#45;&gt;Student -->
<g id="edge7" class="edge"><title>Subgroup&#45;&gt;Student</title>
<path fill="none" stroke="#5887d5" d="M937.833,-316.132C837.84,-302.374 614.293,-271.614 517.678,-258.32"/>
<ellipse fill="none" stroke="#5887d5" cx="941.992" cy="-316.705" rx="4.00001" ry="4.00001"/>
<polygon fill="#5887d5" stroke="#5887d5" points="517.542,-258.302 508.248,-252.48 512.588,-257.62 507.635,-256.938 507.635,-256.938 507.635,-256.938 512.588,-257.62 507.021,-261.396 517.542,-258.302 517.542,-258.302"/>
</g>
<!-- ClassesTimetable -->
<g id="node20" class="node"><title>ClassesTimetable</title>
<ellipse fill="none" stroke="black" cx="1062.74" cy="-251" rx="73.387" ry="18"/>
<text text-anchor="middle" x="1062.74" y="-247.3" font-family="Times,serif" font-size="14.00">ClassesTimetable</text>
</g>
<!-- Subgroup&#45;&gt;ClassesTimetable -->
<g id="edge8" class="edge"><title>Subgroup&#45;&gt;ClassesTimetable</title>
<path fill="none" stroke="#3530d6" d="M1010.33,-301.617C1018.95,-293.458 1028.82,-284.112 1037.66,-275.746"/>
<ellipse fill="none" stroke="#3530d6" cx="1007.29" cy="-304.493" rx="4.00002" ry="4.00002"/>
<polygon fill="#3530d6" stroke="#3530d6" points="1037.84,-275.577 1048.19,-271.97 1041.47,-272.14 1045.1,-268.702 1045.1,-268.702 1045.1,-268.702 1041.47,-272.14 1042.01,-265.434 1037.84,-275.577 1037.84,-275.577"/>
</g>
<!-- TeachersProjectMembership -->
<g id="node9" class="node"><title>TeachersProjectMembership</title>
<ellipse fill="none" stroke="black" cx="253.745" cy="-18" rx="112.38" ry="18"/>
<text text-anchor="middle" x="253.745" y="-14.3" font-family="Times,serif" font-size="14.00">TeachersProjectMembership</text>
</g>
<!-- Lesson -->
<g id="node21" class="node"><title>Lesson</title>
<ellipse fill="none" stroke="black" cx="1031.74" cy="-18" rx="35.9954" ry="18"/>
<text text-anchor="middle" x="1031.74" y="-14.3" font-family="Times,serif" font-size="14.00">Lesson</text>
</g>
<!-- Classroom&#45;&gt;Lesson -->
<g id="edge9" class="edge"><title>Classroom&#45;&gt;Lesson</title>
<path fill="none" stroke="#2d3be8" d="M1085.23,-68.318C1075.84,-59.6629 1065.05,-49.7093 1055.63,-41.0208"/>
<ellipse fill="none" stroke="#2d3be8" cx="1088.33" cy="-71.1775" rx="4.00002" ry="4.00002"/>
<polygon fill="#2d3be8" stroke="#2d3be8" points="1055.45,-40.8551 1051.15,-30.768 1051.77,-37.4657 1048.09,-34.0763 1048.09,-34.0763 1048.09,-34.0763 1051.77,-37.4657 1045.04,-37.3845 1055.45,-40.8551 1055.45,-40.8551"/>
</g>
<!-- Category -->
<g id="node11" class="node"><title>Category</title>
<ellipse fill="none" stroke="black" cx="1133.74" cy="-491" rx="42.7926" ry="18"/>
<text text-anchor="middle" x="1133.74" y="-487.3" font-family="Times,serif" font-size="14.00">Category</text>
</g>
<!-- Post -->
<g id="node24" class="node"><title>Post</title>
<ellipse fill="none" stroke="black" cx="1133.74" cy="-397" rx="27" ry="18"/>
<text text-anchor="middle" x="1133.74" y="-393.3" font-family="Times,serif" font-size="14.00">Post</text>
</g>
<!-- Category&#45;&gt;Post -->
<g id="edge10" class="edge"><title>Category&#45;&gt;Post</title>
<path fill="none" stroke="#7c3981" d="M1133.74,-464.451C1133.74,-452.315 1133.74,-437.795 1133.74,-425.427"/>
<ellipse fill="none" stroke="#7c3981" cx="1133.74" cy="-468.696" rx="4" ry="4"/>
<polygon fill="#7c3981" stroke="#7c3981" points="1133.74,-425.227 1138.24,-415.227 1133.74,-420.227 1133.74,-415.227 1133.74,-415.227 1133.74,-415.227 1133.74,-420.227 1129.24,-415.227 1133.74,-425.227 1133.74,-425.227"/>
</g>
<!-- Semester -->
<g id="node13" class="node"><title>Semester</title>
<ellipse fill="none" stroke="black" cx="536.745" cy="-491" rx="43.5923" ry="18"/>
<text text-anchor="middle" x="536.745" y="-487.3" font-family="Times,serif" font-size="14.00">Semester</text>
</g>
<!-- Semester&#45;&gt;AcademicPlan -->
<g id="edge11" class="edge"><title>Semester&#45;&gt;AcademicPlan</title>
<path fill="none" stroke="#5185fd" d="M519.765,-466.991C509.954,-452.683 498.129,-433.536 490.745,-415 482.642,-394.661 477.769,-370.296 474.99,-352.049"/>
<ellipse fill="none" stroke="#5185fd" cx="522.099" cy="-470.325" rx="4.00002" ry="4.00002"/>
<polygon fill="#5185fd" stroke="#5185fd" points="474.982,-351.992 478.043,-341.462 474.284,-347.041 473.587,-342.089 473.587,-342.089 473.587,-342.089 474.284,-347.041 469.131,-342.717 474.982,-351.992 474.982,-351.992"/>
</g>
<!-- Subject -->
<g id="node19" class="node"><title>Subject</title>
<ellipse fill="none" stroke="black" cx="536.745" cy="-397" rx="37.0935" ry="18"/>
<text text-anchor="middle" x="536.745" y="-393.3" font-family="Times,serif" font-size="14.00">Subject</text>
</g>
<!-- Semester&#45;&gt;Subject -->
<g id="edge12" class="edge"><title>Semester&#45;&gt;Subject</title>
<path fill="none" stroke="#7aa22b" d="M536.745,-462.691C536.745,-450.915 536.745,-437.17 536.745,-425.386"/>
<polygon fill="#7aa22b" stroke="#7aa22b" points="536.745,-462.696 532.245,-472.695 536.745,-467.696 536.745,-472.696 536.745,-472.696 536.745,-472.696 536.745,-467.696 541.245,-472.696 536.745,-462.696 536.745,-462.696"/>
<polygon fill="#7aa22b" stroke="#7aa22b" points="536.745,-425.227 541.245,-415.227 536.745,-420.227 536.745,-415.227 536.745,-415.227 536.745,-415.227 536.745,-420.227 532.245,-415.227 536.745,-425.227 536.745,-425.227"/>
</g>
<!-- Semester&#45;&gt;ClassesTimetable -->
<g id="edge13" class="edge"><title>Semester&#45;&gt;ClassesTimetable</title>
<path fill="none" stroke="#897ddc" d="M585.739,-483.298C708.803,-466.366 1021.69,-422.67 1029.74,-415 1066.6,-379.902 1068.35,-315.861 1065.86,-279.373"/>
<ellipse fill="none" stroke="#897ddc" cx="581.526" cy="-483.877" rx="4.00001" ry="4.00001"/>
<polygon fill="#897ddc" stroke="#897ddc" points="1065.83,-278.961 1069.47,-268.619 1065.41,-273.979 1064.99,-268.996 1064.99,-268.996 1064.99,-268.996 1065.41,-273.979 1060.5,-269.374 1065.83,-278.961 1065.83,-278.961"/>
</g>
<!-- Student&#45;&gt;StudentsProjectMembership -->
<g id="edge17" class="edge"><title>Student&#45;&gt;StudentsProjectMembership</title>
<path fill="none" stroke="#c49846" d="M483.418,-225.811C494.186,-204.255 511.13,-172.164 528.745,-146 535.466,-136.015 543.613,-125.632 551.059,-116.669"/>
<ellipse fill="none" stroke="#c49846" cx="481.514" cy="-229.66" rx="4.00002" ry="4.00002"/>
<polygon fill="#c49846" stroke="#c49846" points="551.182,-116.524 561.076,-111.796 554.411,-112.707 557.641,-108.89 557.641,-108.89 557.641,-108.89 554.411,-112.707 554.205,-105.983 551.182,-116.524 551.182,-116.524"/>
</g>
<!-- Student&#45;&gt;ChatRoom -->
<g id="edge22" class="edge"><title>Student&#45;&gt;ChatRoom</title>
<path fill="none" stroke="#8fc6af" d="M500.158,-231.461C507.893,-226.256 516.213,-220.51 523.745,-215 535.778,-206.196 548.734,-196.037 559.749,-187.186"/>
<ellipse fill="none" stroke="#8fc6af" cx="496.584" cy="-233.846" rx="4.00002" ry="4.00002"/>
<polygon fill="#8fc6af" stroke="#8fc6af" points="559.972,-187.005 570.577,-184.214 563.859,-183.861 567.747,-180.716 567.747,-180.716 567.747,-180.716 563.859,-183.861 564.916,-177.217 559.972,-187.005 559.972,-187.005"/>
</g>
<!-- Student&#45;&gt;LaboratoryWork -->
<g id="edge19" class="edge"><title>Student&#45;&gt;LaboratoryWork</title>
<path fill="none" stroke="#bc5c3e" d="M476.697,-224.849C478.85,-216.662 481.804,-207.705 485.745,-200 499.714,-172.685 502.753,-162.299 528.745,-146 560.396,-126.151 666.51,-135.6 692.745,-109 708.904,-92.6158 712.891,-66.16 713.29,-46.1626"/>
<ellipse fill="none" stroke="#bc5c3e" cx="475.741" cy="-228.816" rx="4.00001" ry="4.00001"/>
<polygon fill="#bc5c3e" stroke="#bc5c3e" points="713.289,-46.1021 717.706,-36.0652 713.248,-41.1022 713.207,-36.1024 713.207,-36.1024 713.207,-36.1024 713.248,-41.1022 708.707,-36.1396 713.289,-46.1021 713.289,-46.1021"/>
</g>
<!-- Student&#45;&gt;Message -->
<g id="edge23" class="edge"><title>Student&#45;&gt;Message</title>
<path fill="none" stroke="#87e646" d="M511.718,-239.089C548.165,-228.058 602.593,-208.807 644.745,-182 664.375,-169.515 663.931,-159.685 682.745,-146 702.201,-131.848 725.792,-118.839 745.063,-109.137"/>
<ellipse fill="none" stroke="#87e646" cx="507.604" cy="-240.311" rx="4.00001" ry="4.00001"/>
<polygon fill="#87e646" stroke="#87e646" points="745.176,-109.082 756.134,-108.684 749.658,-106.866 754.14,-104.65 754.14,-104.65 754.14,-104.65 749.658,-106.866 752.145,-100.616 745.176,-109.082 745.176,-109.082"/>
</g>
<!-- Brigade -->
<g id="node17" class="node"><title>Brigade</title>
<ellipse fill="none" stroke="black" cx="405.745" cy="-164" rx="38.1938" ry="18"/>
<text text-anchor="middle" x="405.745" y="-160.3" font-family="Times,serif" font-size="14.00">Brigade</text>
</g>
<!-- Student&#45;&gt;Brigade -->
<g id="edge16" class="edge"><title>Student&#45;&gt;Brigade</title>
<path fill="none" stroke="#073888" d="M452.827,-225.636C443.968,-214.227 433.443,-200.672 424.593,-189.274"/>
<polygon fill="#073888" stroke="#073888" points="452.886,-225.713 455.465,-236.371 455.953,-229.662 459.019,-233.611 459.019,-233.611 459.019,-233.611 455.953,-229.662 462.573,-230.851 452.886,-225.713 452.886,-225.713"/>
<polygon fill="#073888" stroke="#073888" points="424.34,-188.949 421.761,-178.29 421.274,-185 418.207,-181.05 418.207,-181.05 418.207,-181.05 421.274,-185 414.653,-183.81 424.34,-188.949 424.34,-188.949"/>
</g>
<!-- Project -->
<g id="node18" class="node"><title>Project</title>
<ellipse fill="none" stroke="black" cx="251.745" cy="-164" rx="35.9954" ry="18"/>
<text text-anchor="middle" x="251.745" y="-160.3" font-family="Times,serif" font-size="14.00">Project</text>
</g>
<!-- Student&#45;&gt;Project -->
<g id="edge18" class="edge"><title>Student&#45;&gt;Project</title>
<path fill="none" stroke="#f5dc3b" d="M426.066,-243.393C396.575,-238.088 357.86,-229.14 325.745,-215 308.587,-207.446 291.13,-195.874 277.484,-185.765"/>
<polygon fill="#f5dc3b" stroke="#f5dc3b" points="426.232,-243.422 435.322,-249.555 431.159,-244.271 436.087,-245.121 436.087,-245.121 436.087,-245.121 431.159,-244.271 436.851,-240.686 426.232,-243.422 426.232,-243.422"/>
<polygon fill="#f5dc3b" stroke="#f5dc3b" points="277.477,-185.76 272.239,-176.126 273.496,-182.734 269.516,-179.709 269.516,-179.709 269.516,-179.709 273.496,-182.734 266.793,-183.291 277.477,-185.76 277.477,-185.76"/>
</g>
<!-- BrigadeMembership -->
<g id="node25" class="node"><title>BrigadeMembership</title>
<ellipse fill="none" stroke="black" cx="359.745" cy="-91" rx="83.6854" ry="18"/>
<text text-anchor="middle" x="359.745" y="-87.3" font-family="Times,serif" font-size="14.00">BrigadeMembership</text>
</g>
<!-- Student&#45;&gt;BrigadeMembership -->
<g id="edge15" class="edge"><title>Student&#45;&gt;BrigadeMembership</title>
<path fill="none" stroke="#32b39c" d="M432.975,-237.992C406.912,-227.667 374.538,-209.937 358.745,-182 348.024,-163.036 349.276,-138.035 352.641,-119.197"/>
<ellipse fill="none" stroke="#32b39c" cx="436.746" cy="-239.419" rx="4.00001" ry="4.00001"/>
<polygon fill="#32b39c" stroke="#32b39c" points="352.688,-118.967 359.133,-110.095 353.708,-114.072 354.727,-109.177 354.727,-109.177 354.727,-109.177 353.708,-114.072 350.322,-108.26 352.688,-118.967 352.688,-118.967"/>
</g>
<!-- Student&#45;&gt;PracticalWork -->
<g id="edge20" class="edge"><title>Student&#45;&gt;PracticalWork</title>
<path fill="none" stroke="#104750" d="M425.719,-249.403C376.398,-247.375 296.589,-240.046 232.745,-215 152.877,-183.668 97.3736,-90.8915 74.0598,-45.1272"/>
<ellipse fill="none" stroke="#104750" cx="429.967" cy="-249.558" rx="4" ry="4"/>
<polygon fill="#104750" stroke="#104750" points="74.0301,-45.0676 73.6053,-34.1099 71.8032,-40.5909 69.5762,-36.1142 69.5762,-36.1142 69.5762,-36.1142 71.8032,-40.5909 65.5472,-38.1184 74.0301,-45.0676 74.0301,-45.0676"/>
</g>
<!-- Student&#45;&gt;Teacher -->
<g id="edge21" class="edge"><title>Student&#45;&gt;Teacher</title>
<path fill="none" stroke="#892a9f" d="M425.672,-244.188C357.922,-234.682 236.24,-213.643 206.745,-182 190.931,-165.036 184.668,-139.047 182.221,-119.35"/>
<polygon fill="#892a9f" stroke="#892a9f" points="425.753,-244.199 435.047,-250.019 430.707,-244.88 435.66,-245.561 435.66,-245.561 435.66,-245.561 430.707,-244.88 436.273,-241.103 425.753,-244.199 425.753,-244.199"/>
<polygon fill="#892a9f" stroke="#892a9f" points="182.197,-119.104 185.697,-108.712 181.708,-114.128 181.218,-109.152 181.218,-109.152 181.218,-109.152 181.708,-114.128 176.74,-109.592 182.197,-119.104 182.197,-119.104"/>
</g>
<!-- ActivityNotification::Notification -->
<g id="node29" class="node"><title>ActivityNotification::Notification</title>
<ellipse fill="none" stroke="black" cx="820.745" cy="-164" rx="129.177" ry="18"/>
<text text-anchor="middle" x="820.745" y="-160.3" font-family="Times,serif" font-size="14.00">ActivityNotification::Notification</text>
</g>
<!-- Student&#45;&gt;ActivityNotification::Notification -->
<g id="edge14" class="edge"><title>Student&#45;&gt;ActivityNotification::Notification</title>
<path fill="none" stroke="#e9ac35" d="M515.411,-243.426C550.921,-237.555 602.109,-227.89 645.745,-215 663.158,-209.856 666.47,-205.592 683.745,-200 703.916,-193.471 726.07,-187.363 746.574,-182.136"/>
<ellipse fill="none" stroke="#e9ac35" cx="511.133" cy="-244.122" rx="4.00001" ry="4.00001"/>
<polygon fill="#e9ac35" stroke="#e9ac35" points="746.792,-182.082 757.587,-184.007 751.641,-180.862 756.49,-179.643 756.49,-179.643 756.49,-179.643 751.641,-180.862 755.393,-175.279 746.792,-182.082 746.792,-182.082"/>
<text text-anchor="middle" x="717.745" y="-203.8" font-family="Times,serif" font-size="14.00">notifications</text>
</g>
<!-- Admin -->
<g id="node15" class="node"><title>Admin</title>
<ellipse fill="none" stroke="black" cx="1230.74" cy="-491" rx="35.9954" ry="18"/>
<text text-anchor="middle" x="1230.74" y="-487.3" font-family="Times,serif" font-size="14.00">Admin</text>
</g>
<!-- ApplicationRecord -->
<g id="node16" class="node"><title>ApplicationRecord</title>
<ellipse fill="none" stroke="black" cx="1361.74" cy="-491" rx="77.1866" ry="18"/>
<text text-anchor="middle" x="1361.74" y="-487.3" font-family="Times,serif" font-size="14.00">ApplicationRecord</text>
</g>
<!-- Brigade&#45;&gt;BrigadeMembership -->
<g id="edge24" class="edge"><title>Brigade&#45;&gt;BrigadeMembership</title>
<path fill="none" stroke="#ae7f29" d="M390.547,-139.543C385.98,-132.494 380.947,-124.726 376.297,-117.548"/>
<ellipse fill="none" stroke="#ae7f29" cx="392.901" cy="-143.176" rx="4.00002" ry="4.00002"/>
<polygon fill="#ae7f29" stroke="#ae7f29" points="376.112,-117.264 374.452,-106.424 373.394,-113.067 370.675,-108.871 370.675,-108.871 370.675,-108.871 373.394,-113.067 366.898,-111.318 376.112,-117.264 376.112,-117.264"/>
</g>
<!-- Project&#45;&gt;StudentsProjectMembership -->
<g id="edge25" class="edge"><title>Project&#45;&gt;StudentsProjectMembership</title>
<path fill="none" stroke="#0e35b1" d="M292.08,-154.078C344.126,-142.567 435.611,-122.332 499.954,-108.1"/>
<ellipse fill="none" stroke="#0e35b1" cx="287.899" cy="-155.003" rx="4.00001" ry="4.00001"/>
<polygon fill="#0e35b1" stroke="#0e35b1" points="500.273,-108.03 511.009,-110.264 505.155,-106.95 510.037,-105.87 510.037,-105.87 510.037,-105.87 505.155,-106.95 509.065,-101.476 500.273,-108.03 500.273,-108.03"/>
</g>
<!-- Project&#45;&gt;TeachersProjectMembership -->
<g id="edge26" class="edge"><title>Project&#45;&gt;TeachersProjectMembership</title>
<path fill="none" stroke="#3b0dae" d="M252.094,-137.838C252.45,-112.172 253.002,-72.4773 253.368,-46.1235"/>
<ellipse fill="none" stroke="#3b0dae" cx="252.037" cy="-141.916" rx="4" ry="4"/>
<polygon fill="#3b0dae" stroke="#3b0dae" points="253.369,-46.061 258.007,-36.1245 253.438,-41.0615 253.508,-36.0619 253.508,-36.0619 253.508,-36.0619 253.438,-41.0615 249.008,-35.9994 253.369,-46.061 253.369,-46.061"/>
</g>
<!-- Project&#45;&gt;Teacher -->
<g id="edge27" class="edge"><title>Project&#45;&gt;Teacher</title>
<path fill="none" stroke="#d7dd6b" d="M229.02,-140.275C220.933,-132.189 211.826,-123.081 203.719,-114.974"/>
<polygon fill="#d7dd6b" stroke="#d7dd6b" points="229.267,-140.523 233.157,-150.776 232.803,-144.059 236.339,-147.594 236.339,-147.594 236.339,-147.594 232.803,-144.059 239.521,-144.412 229.267,-140.523 229.267,-140.523"/>
<polygon fill="#d7dd6b" stroke="#d7dd6b" points="203.683,-114.939 199.794,-104.685 200.148,-111.403 196.612,-107.867 196.612,-107.867 196.612,-107.867 200.148,-111.403 193.43,-111.049 203.683,-114.939 203.683,-114.939"/>
</g>
<!-- Subject&#45;&gt;AcademicPlan -->
<g id="edge28" class="edge"><title>Subject&#45;&gt;AcademicPlan</title>
<path fill="none" stroke="#5f921c" d="M516.9,-374.323C509.624,-366.376 501.346,-357.334 493.883,-349.182"/>
<ellipse fill="none" stroke="#5f921c" cx="519.618" cy="-377.292" rx="4.00002" ry="4.00002"/>
<polygon fill="#5f921c" stroke="#5f921c" points="493.788,-349.078 490.355,-338.664 490.412,-345.39 487.035,-341.702 487.035,-341.702 487.035,-341.702 490.412,-345.39 483.716,-344.741 493.788,-349.078 493.788,-349.078"/>
</g>
<!-- ClassesTimetable&#45;&gt;Lesson -->
<g id="edge29" class="edge"><title>ClassesTimetable&#45;&gt;Lesson</title>
<path fill="none" stroke="#e88769" d="M1059.31,-224.423C1053.42,-180.507 1041.43,-91.1544 1035.39,-46.167"/>
<ellipse fill="none" stroke="#e88769" cx="1059.88" cy="-228.673" rx="4.00001" ry="4.00001"/>
<polygon fill="#e88769" stroke="#e88769" points="1035.39,-46.1601 1038.52,-35.6503 1034.72,-41.2045 1034.06,-36.2489 1034.06,-36.2489 1034.06,-36.2489 1034.72,-41.2045 1029.6,-36.8475 1035.39,-46.1601 1035.39,-46.1601"/>
</g>
<!-- WorkNotification -->
<g id="node22" class="node"><title>WorkNotification</title>
<ellipse fill="none" stroke="black" cx="758.745" cy="-251" rx="73.387" ry="18"/>
<text text-anchor="middle" x="758.745" y="-247.3" font-family="Times,serif" font-size="14.00">WorkNotification</text>
</g>
<!-- WorkNotification&#45;&gt;ActivityNotification::Notification -->
<g id="edge30" class="edge"><title>WorkNotification&#45;&gt;ActivityNotification::Notification</title>
<path fill="none" stroke="#4ebeb9" d="M754.457,-224.609C754.256,-216.271 755.429,-207.283 759.745,-200 762.623,-195.142 766.453,-190.897 770.796,-187.202"/>
<ellipse fill="none" stroke="#4ebeb9" cx="754.756" cy="-228.654" rx="4" ry="4"/>
<polygon fill="#4ebeb9" stroke="#4ebeb9" points="771.009,-187.045 781.734,-184.76 775.041,-184.088 779.073,-181.131 779.073,-181.131 779.073,-181.131 775.041,-184.088 776.412,-177.502 771.009,-187.045 771.009,-187.045"/>
<text text-anchor="middle" x="861.745" y="-203.8" font-family="Times,serif" font-size="14.00">generated_notifications_as_notifiable</text>
</g>
<!-- Group -->
<g id="node23" class="node"><title>Group</title>
<ellipse fill="none" stroke="black" cx="987.745" cy="-397" rx="33.2948" ry="18"/>
<text text-anchor="middle" x="987.745" y="-393.3" font-family="Times,serif" font-size="14.00">Group</text>
</g>
<!-- Group&#45;&gt;Subgroup -->
<g id="edge31" class="edge"><title>Group&#45;&gt;Subgroup</title>
<path fill="none" stroke="#10629b" d="M987.745,-370.791C987.745,-364.832 987.745,-358.45 987.745,-352.399"/>
<ellipse fill="none" stroke="#10629b" cx="987.745" cy="-374.813" rx="4" ry="4"/>
<polygon fill="#10629b" stroke="#10629b" points="987.745,-352.029 992.245,-342.029 987.745,-347.029 987.745,-342.029 987.745,-342.029 987.745,-342.029 987.745,-347.029 983.245,-342.029 987.745,-352.029 987.745,-352.029"/>
</g>
<!-- LineItem -->
<g id="node30" class="node"><title>LineItem</title>
<ellipse fill="none" stroke="black" cx="1133.74" cy="-324" rx="43.5923" ry="18"/>
<text text-anchor="middle" x="1133.74" y="-320.3" font-family="Times,serif" font-size="14.00">LineItem</text>
</g>
<!-- Post&#45;&gt;LineItem -->
<g id="edge32" class="edge"><title>Post&#45;&gt;LineItem</title>
<path fill="none" stroke="#c504dd" d="M1133.74,-370.791C1133.74,-364.832 1133.74,-358.45 1133.74,-352.399"/>
<ellipse fill="none" stroke="#c504dd" cx="1133.74" cy="-374.813" rx="4" ry="4"/>
<polygon fill="#c504dd" stroke="#c504dd" points="1133.74,-352.029 1138.24,-342.029 1133.74,-347.029 1133.74,-342.029 1133.74,-342.029 1133.74,-342.029 1133.74,-347.029 1129.24,-342.029 1133.74,-352.029 1133.74,-352.029"/>
</g>
<!-- Ability -->
<g id="node27" class="node"><title>Ability</title>
<polygon fill="none" stroke="black" points="1512.24,-509 1457.24,-509 1457.24,-473 1512.24,-473 1512.24,-509"/>
<text text-anchor="middle" x="1484.74" y="-487.3" font-family="Times,serif" font-size="14.00">Ability</text>
</g>
<!-- Teacher&#45;&gt;LaboratoryWork -->
<g id="edge34" class="edge"><title>Teacher&#45;&gt;LaboratoryWork</title>
<path fill="none" stroke="#9fa144" d="M223.299,-80.937C237.118,-78.1686 252.547,-75.2614 266.745,-73 396.488,-52.3338 548.627,-35.4415 637.206,-26.3325"/>
<ellipse fill="none" stroke="#9fa144" cx="219.29" cy="-81.75" rx="4.00001" ry="4.00001"/>
<polygon fill="#9fa144" stroke="#9fa144" points="637.475,-26.3051 647.881,-29.7641 642.449,-25.7963 647.423,-25.2874 647.423,-25.2874 647.423,-25.2874 642.449,-25.7963 646.965,-20.8108 637.475,-26.3051 637.475,-26.3051"/>
</g>
<!-- Teacher&#45;&gt;TeachersProjectMembership -->
<g id="edge33" class="edge"><title>Teacher&#45;&gt;TeachersProjectMembership</title>
<path fill="none" stroke="#40c9dd" d="M191.926,-66.024C194.489,-61.7672 197.445,-57.5619 200.745,-54 205.023,-49.3813 210.029,-45.0819 215.225,-41.1891"/>
<ellipse fill="none" stroke="#40c9dd" cx="189.93" cy="-69.6319" rx="4.00002" ry="4.00002"/>
<polygon fill="#40c9dd" stroke="#40c9dd" points="215.277,-41.1525 226.051,-39.106 219.374,-38.2858 223.471,-35.419 223.471,-35.419 223.471,-35.419 219.374,-38.2858 220.89,-31.7321 215.277,-41.1525 215.277,-41.1525"/>
</g>
<!-- Teacher&#45;&gt;Lesson -->
<g id="edge36" class="edge"><title>Teacher&#45;&gt;Lesson</title>
<path fill="none" stroke="#cb0795" d="M222.87,-80.5839C236.778,-77.7671 252.369,-74.9206 266.745,-73 267.307,-72.9249 822.099,-33.788 986.414,-22.1974"/>
<ellipse fill="none" stroke="#cb0795" cx="218.814" cy="-81.4221" rx="4.00001" ry="4.00001"/>
<polygon fill="#cb0795" stroke="#cb0795" points="986.688,-22.1783 996.98,-25.9634 991.675,-21.8264 996.663,-21.4745 996.663,-21.4745 996.663,-21.4745 991.675,-21.8264 996.346,-16.9857 986.688,-22.1783 986.688,-22.1783"/>
</g>
<!-- Teacher&#45;&gt;PracticalWork -->
<g id="edge35" class="edge"><title>Teacher&#45;&gt;PracticalWork</title>
<path fill="none" stroke="#ee40d2" d="M153.778,-70.8517C145.543,-65.2313 136.38,-59.2011 127.745,-54 118.995,-48.7301 109.383,-43.3905 100.268,-38.5226"/>
<ellipse fill="none" stroke="#ee40d2" cx="157.153" cy="-73.1786" rx="4.00002" ry="4.00002"/>
<polygon fill="#ee40d2" stroke="#ee40d2" points="100.214,-38.4945 93.4654,-29.8512 95.7907,-36.1633 91.3674,-33.8321 91.3674,-33.8321 91.3674,-33.8321 95.7907,-36.1633 89.2693,-37.8131 100.214,-38.4945 100.214,-38.4945"/>
</g>
</g>
</svg>
