<?xml version="1.0" encoding="UTF-8" standalone="no"?>
<!DOCTYPE svg PUBLIC "-//W3C//DTD SVG 1.1//EN"
 "http://www.w3.org/Graphics/SVG/1.1/DTD/svg11.dtd">
<!-- Generated by graphviz version 2.38.0 (20140413.2041)
 -->
<!-- Title: models_diagram Pages: 1 -->
<svg width="1480pt" height="538pt"
 viewBox="0.00 0.00 1480.24 538.00" xmlns="http://www.w3.org/2000/svg" xmlns:xlink="http://www.w3.org/1999/xlink">
<g id="graph0" class="graph" transform="scale(1 1) rotate(0) translate(4 534)">
<title>models_diagram</title>
<polygon fill="none" stroke="none" points="-4,4 -4,-534 1476.24,-534 1476.24,4 -4,4"/>
<!-- _diagram_info -->
<g id="node1" class="node"><title>_diagram_info</title>
<text text-anchor="start" x="245.745" y="-515.6" font-family="Times,serif" font-size="13.00">Models diagram</text>
<text text-anchor="start" x="245.745" y="-501.6" font-family="Times,serif" font-size="13.00">Date: May 25 2018 &#45; 11:47</text>
<text text-anchor="start" x="245.745" y="-487.6" font-family="Times,serif" font-size="13.00">Migration version: 20180524020223</text>
<text text-anchor="start" x="245.745" y="-473.6" font-family="Times,serif" font-size="13.00">Generated by RailRoady 1.5.3</text>
<text text-anchor="start" x="245.745" y="-459.6" font-family="Times,serif" font-size="13.00">http://railroady.prestonlee.com</text>
</g>
<!-- StudentsProjectMembership -->
<g id="node2" class="node"><title>StudentsProjectMembership</title>
<ellipse fill="none" stroke="black" cx="564.745" cy="-91" rx="111.28" ry="18"/>
<text text-anchor="middle" x="564.745" y="-87.3" font-family="Times,serif" font-size="14.00">StudentsProjectMembership</text>
</g>
<!-- Campus -->
<g id="node3" class="node"><title>Campus</title>
<ellipse fill="none" stroke="black" cx="1085.74" cy="-164" rx="40.0939" ry="18"/>
<text text-anchor="middle" x="1085.74" y="-160.3" font-family="Times,serif" font-size="14.00">Campus</text>
</g>
<!-- Classroom -->
<g id="node10" class="node"><title>Classroom</title>
<ellipse fill="none" stroke="black" cx="1085.74" cy="-91" rx="48.9926" ry="18"/>
<text text-anchor="middle" x="1085.74" y="-87.3" font-family="Times,serif" font-size="14.00">Classroom</text>
</g>
<!-- Campus&#45;&gt;Classroom -->
<g id="edge1" class="edge"><title>Campus&#45;&gt;Classroom</title>
<path fill="none" stroke="#15840d" d="M1085.74,-137.791C1085.74,-131.832 1085.74,-125.45 1085.74,-119.399"/>
<ellipse fill="none" stroke="#15840d" cx="1085.74" cy="-141.813" rx="4" ry="4"/>
<polygon fill="#15840d" stroke="#15840d" points="1085.74,-119.029 1090.24,-109.029 1085.74,-114.029 1085.74,-109.029 1085.74,-109.029 1085.74,-109.029 1085.74,-114.029 1081.24,-109.029 1085.74,-119.029 1085.74,-119.029"/>
</g>
<!-- ChatRoom -->
<g id="node4" class="node"><title>ChatRoom</title>
<ellipse fill="none" stroke="black" cx="563.745" cy="-164" rx="49.2915" ry="18"/>
<text text-anchor="middle" x="563.745" y="-160.3" font-family="Times,serif" font-size="14.00">ChatRoom</text>
</g>
<!-- Message -->
<g id="node12" class="node"><title>Message</title>
<ellipse fill="none" stroke="black" cx="773.745" cy="-91" rx="42.4939" ry="18"/>
<text text-anchor="middle" x="773.745" y="-87.3" font-family="Times,serif" font-size="14.00">Message</text>
</g>
<!-- ChatRoom&#45;&gt;Message -->
<g id="edge2" class="edge"><title>ChatRoom&#45;&gt;Message</title>
<path fill="none" stroke="#176a22" d="M593.057,-143.627C603.357,-137.54 615.238,-131.295 626.745,-127 665.37,-112.584 677.748,-119 717.745,-109 722.132,-107.903 726.688,-106.673 731.219,-105.391"/>
<ellipse fill="none" stroke="#176a22" cx="589.622" cy="-145.714" rx="4.00002" ry="4.00002"/>
<polygon fill="#176a22" stroke="#176a22" points="731.428,-105.33 742.289,-106.848 736.228,-103.929 741.028,-102.528 741.028,-102.528 741.028,-102.528 736.228,-103.929 739.767,-98.2081 731.428,-105.33 731.428,-105.33"/>
</g>
<!-- LaboratoryWork -->
<g id="node5" class="node"><title>LaboratoryWork</title>
<ellipse fill="none" stroke="black" cx="703.745" cy="-18" rx="70.3881" ry="18"/>
<text text-anchor="middle" x="703.745" y="-14.3" font-family="Times,serif" font-size="14.00">LaboratoryWork</text>
</g>
<!-- Raiting -->
<g id="node6" class="node"><title>Raiting</title>
<ellipse fill="none" stroke="black" cx="804.745" cy="-491" rx="36.2938" ry="18"/>
<text text-anchor="middle" x="804.745" y="-487.3" font-family="Times,serif" font-size="14.00">Raiting</text>
</g>
<!-- AcademicPlan -->
<g id="node7" class="node"><title>AcademicPlan</title>
<ellipse fill="none" stroke="black" cx="448.745" cy="-324" rx="62.2891" ry="18"/>
<text text-anchor="middle" x="448.745" y="-320.3" font-family="Times,serif" font-size="14.00">AcademicPlan</text>
</g>
<!-- AcademicPlan&#45;&gt;LaboratoryWork -->
<g id="edge3" class="edge"><title>AcademicPlan&#45;&gt;LaboratoryWork</title>
<path fill="none" stroke="#393b93" d="M517.421,-319.277C641.599,-310.838 894.889,-285.212 940.745,-215 995.565,-131.062 842.474,-64.8145 756.968,-35.4618"/>
<ellipse fill="none" stroke="#393b93" cx="513.423" cy="-319.542" rx="4" ry="4"/>
<polygon fill="#393b93" stroke="#393b93" points="756.874,-35.4302 748.837,-27.9696 752.136,-33.8319 747.398,-32.2336 747.398,-32.2336 747.398,-32.2336 752.136,-33.8319 745.96,-36.4975 756.874,-35.4302 756.874,-35.4302"/>
</g>
<!-- Student -->
<g id="node14" class="node"><title>Student</title>
<ellipse fill="none" stroke="black" cx="448.745" cy="-251" rx="37.8943" ry="18"/>
<text text-anchor="middle" x="448.745" y="-247.3" font-family="Times,serif" font-size="14.00">Student</text>
</g>
<!-- AcademicPlan&#45;&gt;Student -->
<g id="edge5" class="edge"><title>AcademicPlan&#45;&gt;Student</title>
<path fill="none" stroke="#c580d2" d="M448.745,-295.753C448.745,-290.276 448.745,-284.521 448.745,-279.051"/>
<polygon fill="#c580d2" stroke="#c580d2" points="448.745,-295.813 444.245,-305.813 448.745,-300.813 448.745,-305.813 448.745,-305.813 448.745,-305.813 448.745,-300.813 453.245,-305.813 448.745,-295.813 448.745,-295.813"/>
<polygon fill="#c580d2" stroke="#c580d2" points="448.745,-279.029 453.245,-269.029 448.745,-274.029 448.745,-269.029 448.745,-269.029 448.745,-269.029 448.745,-274.029 444.245,-269.029 448.745,-279.029 448.745,-279.029"/>
</g>
<!-- PracticalWork -->
<g id="node26" class="node"><title>PracticalWork</title>
<ellipse fill="none" stroke="black" cx="61.7445" cy="-18" rx="61.99" ry="18"/>
<text text-anchor="middle" x="61.7445" y="-14.3" font-family="Times,serif" font-size="14.00">PracticalWork</text>
</g>
<!-- AcademicPlan&#45;&gt;PracticalWork -->
<g id="edge4" class="edge"><title>AcademicPlan&#45;&gt;PracticalWork</title>
<path fill="none" stroke="#cf9fa5" d="M381.412,-317.436C270.554,-307.358 61.7445,-284.113 61.7445,-252 61.7445,-252 61.7445,-252 61.7445,-90 61.7445,-75.6513 61.7445,-59.6715 61.7445,-46.5107"/>
<ellipse fill="none" stroke="#cf9fa5" cx="385.562" cy="-317.809" rx="4" ry="4"/>
<polygon fill="#cf9fa5" stroke="#cf9fa5" points="61.7446,-46.2164 66.2445,-36.2163 61.7446,-41.2164 61.7445,-36.2164 61.7445,-36.2164 61.7445,-36.2164 61.7446,-41.2164 57.2445,-36.2164 61.7446,-46.2164 61.7446,-46.2164"/>
</g>
<!-- Teacher -->
<g id="node28" class="node"><title>Teacher</title>
<ellipse fill="none" stroke="black" cx="172.745" cy="-91" rx="38.9931" ry="18"/>
<text text-anchor="middle" x="172.745" y="-87.3" font-family="Times,serif" font-size="14.00">Teacher</text>
</g>
<!-- AcademicPlan&#45;&gt;Teacher -->
<g id="edge6" class="edge"><title>AcademicPlan&#45;&gt;Teacher</title>
<path fill="none" stroke="#6e65b7" d="M376.288,-321.906C299.347,-316.388 181.091,-294.487 123.745,-215 101.415,-184.05 128.66,-141.508 150.569,-115.429"/>
<polygon fill="#6e65b7" stroke="#6e65b7" points="376.413,-321.914 386.104,-327.045 381.403,-322.234 386.392,-322.554 386.392,-322.554 386.392,-322.554 381.403,-322.234 386.68,-318.063 376.413,-321.914 376.413,-321.914"/>
<polygon fill="#6e65b7" stroke="#6e65b7" points="150.848,-115.109 160.814,-110.536 154.136,-111.343 157.424,-107.576 157.424,-107.576 157.424,-107.576 154.136,-111.343 154.035,-104.617 150.848,-115.109 150.848,-115.109"/>
</g>
<!-- Subgroup -->
<g id="node8" class="node"><title>Subgroup</title>
<ellipse fill="none" stroke="black" cx="964.745" cy="-324" rx="44.6926" ry="18"/>
<text text-anchor="middle" x="964.745" y="-320.3" font-family="Times,serif" font-size="14.00">Subgroup</text>
</g>
<!-- Subgroup&#45;&gt;Student -->
<g id="edge7" class="edge"><title>Subgroup&#45;&gt;Student</title>
<path fill="none" stroke="#0c86ca" d="M914.833,-316.132C814.84,-302.374 591.293,-271.614 494.678,-258.32"/>
<ellipse fill="none" stroke="#0c86ca" cx="918.992" cy="-316.705" rx="4.00001" ry="4.00001"/>
<polygon fill="#0c86ca" stroke="#0c86ca" points="494.542,-258.302 485.248,-252.48 489.588,-257.62 484.635,-256.938 484.635,-256.938 484.635,-256.938 489.588,-257.62 484.021,-261.396 494.542,-258.302 494.542,-258.302"/>
</g>
<!-- ClassesTimetable -->
<g id="node20" class="node"><title>ClassesTimetable</title>
<ellipse fill="none" stroke="black" cx="1039.74" cy="-251" rx="73.387" ry="18"/>
<text text-anchor="middle" x="1039.74" y="-247.3" font-family="Times,serif" font-size="14.00">ClassesTimetable</text>
</g>
<!-- Subgroup&#45;&gt;ClassesTimetable -->
<g id="edge8" class="edge"><title>Subgroup&#45;&gt;ClassesTimetable</title>
<path fill="none" stroke="#875249" d="M987.332,-301.617C995.95,-293.458 1005.82,-284.112 1014.66,-275.746"/>
<ellipse fill="none" stroke="#875249" cx="984.294" cy="-304.493" rx="4.00002" ry="4.00002"/>
<polygon fill="#875249" stroke="#875249" points="1014.84,-275.577 1025.19,-271.97 1018.47,-272.14 1022.1,-268.702 1022.1,-268.702 1022.1,-268.702 1018.47,-272.14 1019.01,-265.434 1014.84,-275.577 1014.84,-275.577"/>
</g>
<!-- TeachersProjectMembership -->
<g id="node9" class="node"><title>TeachersProjectMembership</title>
<ellipse fill="none" stroke="black" cx="253.745" cy="-18" rx="112.38" ry="18"/>
<text text-anchor="middle" x="253.745" y="-14.3" font-family="Times,serif" font-size="14.00">TeachersProjectMembership</text>
</g>
<!-- Lesson -->
<g id="node21" class="node"><title>Lesson</title>
<ellipse fill="none" stroke="black" cx="1008.74" cy="-18" rx="35.9954" ry="18"/>
<text text-anchor="middle" x="1008.74" y="-14.3" font-family="Times,serif" font-size="14.00">Lesson</text>
</g>
<!-- Classroom&#45;&gt;Lesson -->
<g id="edge9" class="edge"><title>Classroom&#45;&gt;Lesson</title>
<path fill="none" stroke="#e2380e" d="M1062.23,-68.318C1052.84,-59.6629 1042.05,-49.7093 1032.63,-41.0208"/>
<ellipse fill="none" stroke="#e2380e" cx="1065.33" cy="-71.1775" rx="4.00002" ry="4.00002"/>
<polygon fill="#e2380e" stroke="#e2380e" points="1032.45,-40.8551 1028.15,-30.768 1028.77,-37.4657 1025.09,-34.0763 1025.09,-34.0763 1025.09,-34.0763 1028.77,-37.4657 1022.04,-37.3845 1032.45,-40.8551 1032.45,-40.8551"/>
</g>
<!-- Category -->
<g id="node11" class="node"><title>Category</title>
<ellipse fill="none" stroke="black" cx="1093.74" cy="-491" rx="42.7926" ry="18"/>
<text text-anchor="middle" x="1093.74" y="-487.3" font-family="Times,serif" font-size="14.00">Category</text>
</g>
<!-- Post -->
<g id="node24" class="node"><title>Post</title>
<ellipse fill="none" stroke="black" cx="1093.74" cy="-397" rx="27" ry="18"/>
<text text-anchor="middle" x="1093.74" y="-393.3" font-family="Times,serif" font-size="14.00">Post</text>
</g>
<!-- Category&#45;&gt;Post -->
<g id="edge10" class="edge"><title>Category&#45;&gt;Post</title>
<path fill="none" stroke="#7e099e" d="M1093.74,-464.451C1093.74,-452.315 1093.74,-437.795 1093.74,-425.427"/>
<ellipse fill="none" stroke="#7e099e" cx="1093.74" cy="-468.696" rx="4" ry="4"/>
<polygon fill="#7e099e" stroke="#7e099e" points="1093.74,-425.227 1098.24,-415.227 1093.74,-420.227 1093.74,-415.227 1093.74,-415.227 1093.74,-415.227 1093.74,-420.227 1089.24,-415.227 1093.74,-425.227 1093.74,-425.227"/>
</g>
<!-- Semester -->
<g id="node13" class="node"><title>Semester</title>
<ellipse fill="none" stroke="black" cx="513.745" cy="-491" rx="43.5923" ry="18"/>
<text text-anchor="middle" x="513.745" y="-487.3" font-family="Times,serif" font-size="14.00">Semester</text>
</g>
<!-- Semester&#45;&gt;AcademicPlan -->
<g id="edge11" class="edge"><title>Semester&#45;&gt;AcademicPlan</title>
<path fill="none" stroke="#610309" d="M496.765,-466.991C486.954,-452.683 475.129,-433.536 467.745,-415 459.642,-394.661 454.769,-370.296 451.99,-352.049"/>
<ellipse fill="none" stroke="#610309" cx="499.099" cy="-470.325" rx="4.00002" ry="4.00002"/>
<polygon fill="#610309" stroke="#610309" points="451.982,-351.992 455.043,-341.462 451.284,-347.041 450.587,-342.089 450.587,-342.089 450.587,-342.089 451.284,-347.041 446.131,-342.717 451.982,-351.992 451.982,-351.992"/>
</g>
<!-- Subject -->
<g id="node19" class="node"><title>Subject</title>
<ellipse fill="none" stroke="black" cx="513.745" cy="-397" rx="37.0935" ry="18"/>
<text text-anchor="middle" x="513.745" y="-393.3" font-family="Times,serif" font-size="14.00">Subject</text>
</g>
<!-- Semester&#45;&gt;Subject -->
<g id="edge12" class="edge"><title>Semester&#45;&gt;Subject</title>
<path fill="none" stroke="#4b6d6d" d="M513.745,-462.691C513.745,-450.915 513.745,-437.17 513.745,-425.386"/>
<polygon fill="#4b6d6d" stroke="#4b6d6d" points="513.745,-462.696 509.245,-472.695 513.745,-467.696 513.745,-472.696 513.745,-472.696 513.745,-472.696 513.745,-467.696 518.245,-472.696 513.745,-462.696 513.745,-462.696"/>
<polygon fill="#4b6d6d" stroke="#4b6d6d" points="513.745,-425.227 518.245,-415.227 513.745,-420.227 513.745,-415.227 513.745,-415.227 513.745,-415.227 513.745,-420.227 509.245,-415.227 513.745,-425.227 513.745,-425.227"/>
</g>
<!-- Semester&#45;&gt;ClassesTimetable -->
<g id="edge13" class="edge"><title>Semester&#45;&gt;ClassesTimetable</title>
<path fill="none" stroke="#a3a6dc" d="M561.782,-482.513C611.36,-474.802 690.945,-462.467 759.745,-452 814.614,-443.652 966.51,-453.231 1006.74,-415 1043.64,-379.944 1045.37,-315.887 1042.87,-279.385"/>
<ellipse fill="none" stroke="#a3a6dc" cx="557.741" cy="-483.142" rx="4.00001" ry="4.00001"/>
<polygon fill="#a3a6dc" stroke="#a3a6dc" points="1042.84,-278.969 1046.48,-268.625 1042.42,-273.986 1041.99,-269.004 1041.99,-269.004 1041.99,-269.004 1042.42,-273.986 1037.51,-269.383 1042.84,-278.969 1042.84,-278.969"/>
</g>
<!-- Student&#45;&gt;StudentsProjectMembership -->
<g id="edge17" class="edge"><title>Student&#45;&gt;StudentsProjectMembership</title>
<path fill="none" stroke="#02a629" d="M459.207,-225.827C469.353,-203.83 486.071,-171.064 505.745,-146 514.336,-135.054 525.242,-124.403 535.334,-115.494"/>
<ellipse fill="none" stroke="#02a629" cx="457.55" cy="-229.485" rx="4.00002" ry="4.00002"/>
<polygon fill="#02a629" stroke="#02a629" points="535.605,-115.262 546.124,-112.164 539.399,-112.006 543.193,-108.749 543.193,-108.749 543.193,-108.749 539.399,-112.006 540.263,-105.334 535.605,-115.262 535.605,-115.262"/>
</g>
<!-- Student&#45;&gt;ChatRoom -->
<g id="edge22" class="edge"><title>Student&#45;&gt;ChatRoom</title>
<path fill="none" stroke="#f4fef2" d="M477.158,-231.461C484.893,-226.256 493.213,-220.51 500.745,-215 512.778,-206.196 525.734,-196.037 536.749,-187.186"/>
<ellipse fill="none" stroke="#f4fef2" cx="473.584" cy="-233.846" rx="4.00002" ry="4.00002"/>
<polygon fill="#f4fef2" stroke="#f4fef2" points="536.972,-187.005 547.577,-184.214 540.859,-183.861 544.747,-180.716 544.747,-180.716 544.747,-180.716 540.859,-183.861 541.916,-177.217 536.972,-187.005 536.972,-187.005"/>
</g>
<!-- Student&#45;&gt;LaboratoryWork -->
<g id="edge19" class="edge"><title>Student&#45;&gt;LaboratoryWork</title>
<path fill="none" stroke="#5da137" d="M453.697,-224.849C455.85,-216.662 458.804,-207.705 462.745,-200 476.714,-172.685 479.607,-162.064 505.745,-146 523.047,-135.366 670.353,-123.331 684.745,-109 701.051,-92.7624 705.02,-66.2882 705.374,-46.2467"/>
<ellipse fill="none" stroke="#5da137" cx="452.741" cy="-228.816" rx="4.00001" ry="4.00001"/>
<polygon fill="#5da137" stroke="#5da137" points="705.373,-46.1604 709.765,-36.1124 705.319,-41.1607 705.265,-36.161 705.265,-36.161 705.265,-36.161 705.319,-41.1607 700.766,-36.2095 705.373,-46.1604 705.373,-46.1604"/>
</g>
<!-- Student&#45;&gt;Message -->
<g id="edge23" class="edge"><title>Student&#45;&gt;Message</title>
<path fill="none" stroke="#f446e7" d="M488.718,-239.089C525.165,-228.058 579.593,-208.807 621.745,-182 641.375,-169.515 640.548,-159.143 659.745,-146 682.671,-130.303 710.874,-116.901 733.491,-107.375"/>
<ellipse fill="none" stroke="#f446e7" cx="484.604" cy="-240.311" rx="4.00001" ry="4.00001"/>
<polygon fill="#f446e7" stroke="#f446e7" points="733.565,-107.345 744.526,-107.695 738.188,-105.44 742.811,-103.534 742.811,-103.534 742.811,-103.534 738.188,-105.44 741.097,-99.3739 733.565,-107.345 733.565,-107.345"/>
</g>
<!-- Brigade -->
<g id="node17" class="node"><title>Brigade</title>
<ellipse fill="none" stroke="black" cx="382.745" cy="-164" rx="38.1938" ry="18"/>
<text text-anchor="middle" x="382.745" y="-160.3" font-family="Times,serif" font-size="14.00">Brigade</text>
</g>
<!-- Student&#45;&gt;Brigade -->
<g id="edge16" class="edge"><title>Student&#45;&gt;Brigade</title>
<path fill="none" stroke="#0d11f7" d="M429.827,-225.636C420.968,-214.227 410.443,-200.672 401.593,-189.274"/>
<polygon fill="#0d11f7" stroke="#0d11f7" points="429.886,-225.713 432.465,-236.371 432.953,-229.662 436.019,-233.611 436.019,-233.611 436.019,-233.611 432.953,-229.662 439.573,-230.851 429.886,-225.713 429.886,-225.713"/>
<polygon fill="#0d11f7" stroke="#0d11f7" points="401.34,-188.949 398.761,-178.29 398.274,-185 395.207,-181.05 395.207,-181.05 395.207,-181.05 398.274,-185 391.653,-183.81 401.34,-188.949 401.34,-188.949"/>
</g>
<!-- Project -->
<g id="node18" class="node"><title>Project</title>
<ellipse fill="none" stroke="black" cx="249.745" cy="-164" rx="35.9954" ry="18"/>
<text text-anchor="middle" x="249.745" y="-160.3" font-family="Times,serif" font-size="14.00">Project</text>
</g>
<!-- Student&#45;&gt;Project -->
<g id="edge18" class="edge"><title>Student&#45;&gt;Project</title>
<path fill="none" stroke="#1714af" d="M401.925,-245.069C372.132,-240.45 333.508,-231.638 302.745,-215 290.277,-208.257 278.571,-197.839 269.347,-188.253"/>
<polygon fill="#1714af" stroke="#1714af" points="402.171,-245.104 411.425,-250.988 407.119,-245.819 412.068,-246.534 412.068,-246.534 412.068,-246.534 407.119,-245.819 412.711,-242.08 402.171,-245.104 402.171,-245.104"/>
<polygon fill="#1714af" stroke="#1714af" points="269.287,-188.189 265.826,-177.784 265.901,-184.51 262.515,-180.831 262.515,-180.831 262.515,-180.831 265.901,-184.51 259.204,-183.879 269.287,-188.189 269.287,-188.189"/>
</g>
<!-- BrigadeMembership -->
<g id="node25" class="node"><title>BrigadeMembership</title>
<ellipse fill="none" stroke="black" cx="351.745" cy="-91" rx="83.6854" ry="18"/>
<text text-anchor="middle" x="351.745" y="-87.3" font-family="Times,serif" font-size="14.00">BrigadeMembership</text>
</g>
<!-- Student&#45;&gt;BrigadeMembership -->
<g id="edge15" class="edge"><title>Student&#45;&gt;BrigadeMembership</title>
<path fill="none" stroke="#01783c" d="M409.975,-237.992C383.912,-227.667 351.538,-209.937 335.745,-182 324.704,-162.471 330.735,-137.067 338.35,-118.232"/>
<ellipse fill="none" stroke="#01783c" cx="413.746" cy="-239.419" rx="4.00001" ry="4.00001"/>
<polygon fill="#01783c" stroke="#01783c" points="338.365,-118.198 346.514,-110.86 340.38,-113.622 342.395,-109.046 342.395,-109.046 342.395,-109.046 340.38,-113.622 338.277,-107.233 338.365,-118.198 338.365,-118.198"/>
</g>
<!-- Student&#45;&gt;PracticalWork -->
<g id="edge20" class="edge"><title>Student&#45;&gt;PracticalWork</title>
<path fill="none" stroke="#8d503a" d="M402.86,-248.411C357.472,-245.529 286.732,-237.471 229.745,-215 150.533,-183.767 96.3646,-90.9424 73.6952,-45.1469"/>
<ellipse fill="none" stroke="#8d503a" cx="407.038" cy="-248.656" rx="4" ry="4"/>
<polygon fill="#8d503a" stroke="#8d503a" points="73.688,-45.1319 73.3902,-34.1701 71.5131,-40.6297 69.3382,-36.1275 69.3382,-36.1275 69.3382,-36.1275 71.5131,-40.6297 65.2862,-38.0849 73.688,-45.1319 73.688,-45.1319"/>
</g>
<!-- Student&#45;&gt;Teacher -->
<g id="edge21" class="edge"><title>Student&#45;&gt;Teacher</title>
<path fill="none" stroke="#926ce7" d="M403.069,-243.111C340.111,-232.675 231.402,-210.966 204.745,-182 188.752,-164.623 180.65,-138.729 176.609,-119.171"/>
<polygon fill="#926ce7" stroke="#926ce7" points="403.266,-243.143 412.414,-249.19 408.201,-243.946 413.136,-244.748 413.136,-244.748 413.136,-244.748 408.201,-243.946 413.858,-240.307 403.266,-243.143 403.266,-243.143"/>
<polygon fill="#926ce7" stroke="#926ce7" points="176.607,-119.161 179.227,-108.513 175.704,-114.244 174.801,-109.326 174.801,-109.326 174.801,-109.326 175.704,-114.244 170.375,-110.139 176.607,-119.161 176.607,-119.161"/>
</g>
<!-- ActivityNotification::Notification -->
<g id="node29" class="node"><title>ActivityNotification::Notification</title>
<ellipse fill="none" stroke="black" cx="797.745" cy="-164" rx="129.177" ry="18"/>
<text text-anchor="middle" x="797.745" y="-160.3" font-family="Times,serif" font-size="14.00">ActivityNotification::Notification</text>
</g>
<!-- Student&#45;&gt;ActivityNotification::Notification -->
<g id="edge14" class="edge"><title>Student&#45;&gt;ActivityNotification::Notification</title>
<path fill="none" stroke="#fcba5e" d="M492.411,-243.426C527.921,-237.555 579.109,-227.89 622.745,-215 640.158,-209.856 643.47,-205.592 660.745,-200 680.916,-193.471 703.07,-187.363 723.574,-182.136"/>
<ellipse fill="none" stroke="#fcba5e" cx="488.133" cy="-244.122" rx="4.00001" ry="4.00001"/>
<polygon fill="#fcba5e" stroke="#fcba5e" points="723.792,-182.082 734.587,-184.007 728.641,-180.862 733.49,-179.643 733.49,-179.643 733.49,-179.643 728.641,-180.862 732.393,-175.279 723.792,-182.082 723.792,-182.082"/>
<text text-anchor="middle" x="694.745" y="-203.8" font-family="Times,serif" font-size="14.00">notifications</text>
</g>
<!-- Admin -->
<g id="node15" class="node"><title>Admin</title>
<ellipse fill="none" stroke="black" cx="1190.74" cy="-491" rx="35.9954" ry="18"/>
<text text-anchor="middle" x="1190.74" y="-487.3" font-family="Times,serif" font-size="14.00">Admin</text>
</g>
<!-- ApplicationRecord -->
<g id="node16" class="node"><title>ApplicationRecord</title>
<ellipse fill="none" stroke="black" cx="1321.74" cy="-491" rx="77.1866" ry="18"/>
<text text-anchor="middle" x="1321.74" y="-487.3" font-family="Times,serif" font-size="14.00">ApplicationRecord</text>
</g>
<!-- Brigade&#45;&gt;BrigadeMembership -->
<g id="edge24" class="edge"><title>Brigade&#45;&gt;BrigadeMembership</title>
<path fill="none" stroke="#2b55d9" d="M372.144,-138.721C369.296,-132.199 366.203,-125.114 363.306,-118.479"/>
<ellipse fill="none" stroke="#2b55d9" cx="373.797" cy="-142.508" rx="4.00002" ry="4.00002"/>
<polygon fill="#2b55d9" stroke="#2b55d9" points="363.255,-118.363 363.378,-107.398 361.254,-113.781 359.254,-109.198 359.254,-109.198 359.254,-109.198 361.254,-113.781 355.13,-110.999 363.255,-118.363 363.255,-118.363"/>
</g>
<!-- Project&#45;&gt;StudentsProjectMembership -->
<g id="edge25" class="edge"><title>Project&#45;&gt;StudentsProjectMembership</title>
<path fill="none" stroke="#04d55a" d="M289.61,-154.014C340.609,-142.519 429.864,-122.402 492.863,-108.202"/>
<ellipse fill="none" stroke="#04d55a" cx="285.584" cy="-154.922" rx="4.00001" ry="4.00001"/>
<polygon fill="#04d55a" stroke="#04d55a" points="492.984,-108.175 503.729,-110.366 497.861,-107.075 502.739,-105.976 502.739,-105.976 502.739,-105.976 497.861,-107.075 501.75,-101.586 492.984,-108.175 492.984,-108.175"/>
</g>
<!-- Project&#45;&gt;TeachersProjectMembership -->
<g id="edge26" class="edge"><title>Project&#45;&gt;TeachersProjectMembership</title>
<path fill="none" stroke="#b2c659" d="M250.443,-137.838C251.156,-112.172 252.259,-72.4773 252.991,-46.1235"/>
<ellipse fill="none" stroke="#b2c659" cx="250.33" cy="-141.917" rx="4" ry="4"/>
<polygon fill="#b2c659" stroke="#b2c659" points="252.993,-46.0581 257.769,-36.1869 253.132,-41.06 253.271,-36.0619 253.271,-36.0619 253.271,-36.0619 253.132,-41.06 248.772,-35.9369 252.993,-46.0581 252.993,-46.0581"/>
</g>
<!-- Project&#45;&gt;Teacher -->
<g id="edge27" class="edge"><title>Project&#45;&gt;Teacher</title>
<path fill="none" stroke="#2c18d4" d="M226.036,-141.139C216.822,-132.643 206.275,-122.918 197.008,-114.373"/>
<polygon fill="#2c18d4" stroke="#2c18d4" points="226.063,-141.164 230.364,-151.251 229.739,-144.553 233.415,-147.943 233.415,-147.943 233.415,-147.943 229.739,-144.553 236.465,-144.634 226.063,-141.164 226.063,-141.164"/>
<polygon fill="#2c18d4" stroke="#2c18d4" points="196.935,-114.305 192.633,-104.218 193.259,-110.916 189.583,-107.526 189.583,-107.526 189.583,-107.526 193.259,-110.916 186.533,-110.835 196.935,-114.305 196.935,-114.305"/>
</g>
<!-- Subject&#45;&gt;AcademicPlan -->
<g id="edge28" class="edge"><title>Subject&#45;&gt;AcademicPlan</title>
<path fill="none" stroke="#7fbb50" d="M493.9,-374.323C486.624,-366.376 478.346,-357.334 470.883,-349.182"/>
<ellipse fill="none" stroke="#7fbb50" cx="496.618" cy="-377.292" rx="4.00002" ry="4.00002"/>
<polygon fill="#7fbb50" stroke="#7fbb50" points="470.788,-349.078 467.355,-338.664 467.412,-345.39 464.035,-341.702 464.035,-341.702 464.035,-341.702 467.412,-345.39 460.716,-344.741 470.788,-349.078 470.788,-349.078"/>
</g>
<!-- ClassesTimetable&#45;&gt;Lesson -->
<g id="edge29" class="edge"><title>ClassesTimetable&#45;&gt;Lesson</title>
<path fill="none" stroke="#7e5f87" d="M1036.31,-224.423C1030.42,-180.507 1018.43,-91.1544 1012.39,-46.167"/>
<ellipse fill="none" stroke="#7e5f87" cx="1036.88" cy="-228.673" rx="4.00001" ry="4.00001"/>
<polygon fill="#7e5f87" stroke="#7e5f87" points="1012.39,-46.1601 1015.52,-35.6503 1011.72,-41.2045 1011.06,-36.2489 1011.06,-36.2489 1011.06,-36.2489 1011.72,-41.2045 1006.6,-36.8475 1012.39,-46.1601 1012.39,-46.1601"/>
</g>
<!-- WorkNotification -->
<g id="node22" class="node"><title>WorkNotification</title>
<ellipse fill="none" stroke="black" cx="735.745" cy="-251" rx="73.387" ry="18"/>
<text text-anchor="middle" x="735.745" y="-247.3" font-family="Times,serif" font-size="14.00">WorkNotification</text>
</g>
<!-- WorkNotification&#45;&gt;ActivityNotification::Notification -->
<g id="edge30" class="edge"><title>WorkNotification&#45;&gt;ActivityNotification::Notification</title>
<path fill="none" stroke="#3e1ffa" d="M731.457,-224.609C731.256,-216.271 732.429,-207.283 736.745,-200 739.623,-195.142 743.453,-190.897 747.796,-187.202"/>
<ellipse fill="none" stroke="#3e1ffa" cx="731.756" cy="-228.654" rx="4" ry="4"/>
<polygon fill="#3e1ffa" stroke="#3e1ffa" points="748.009,-187.045 758.734,-184.76 752.041,-184.088 756.073,-181.131 756.073,-181.131 756.073,-181.131 752.041,-184.088 753.412,-177.502 748.009,-187.045 748.009,-187.045"/>
<text text-anchor="middle" x="838.745" y="-203.8" font-family="Times,serif" font-size="14.00">generated_notifications_as_notifiable</text>
</g>
<!-- Group -->
<g id="node23" class="node"><title>Group</title>
<ellipse fill="none" stroke="black" cx="964.745" cy="-397" rx="33.2948" ry="18"/>
<text text-anchor="middle" x="964.745" y="-393.3" font-family="Times,serif" font-size="14.00">Group</text>
</g>
<!-- Group&#45;&gt;Subgroup -->
<g id="edge31" class="edge"><title>Group&#45;&gt;Subgroup</title>
<path fill="none" stroke="#ed160e" d="M964.745,-370.791C964.745,-364.832 964.745,-358.45 964.745,-352.399"/>
<ellipse fill="none" stroke="#ed160e" cx="964.745" cy="-374.813" rx="4" ry="4"/>
<polygon fill="#ed160e" stroke="#ed160e" points="964.745,-352.029 969.245,-342.029 964.745,-347.029 964.745,-342.029 964.745,-342.029 964.745,-342.029 964.745,-347.029 960.245,-342.029 964.745,-352.029 964.745,-352.029"/>
</g>
<!-- Ability -->
<g id="node27" class="node"><title>Ability</title>
<polygon fill="none" stroke="black" points="1472.24,-509 1417.24,-509 1417.24,-473 1472.24,-473 1472.24,-509"/>
<text text-anchor="middle" x="1444.74" y="-487.3" font-family="Times,serif" font-size="14.00">Ability</text>
</g>
<!-- Teacher&#45;&gt;LaboratoryWork -->
<g id="edge33" class="edge"><title>Teacher&#45;&gt;LaboratoryWork</title>
<path fill="none" stroke="#755608" d="M215.299,-80.937C229.118,-78.1686 244.547,-75.2614 258.745,-73 388.488,-52.3338 540.627,-35.4415 629.206,-26.3325"/>
<ellipse fill="none" stroke="#755608" cx="211.29" cy="-81.75" rx="4.00001" ry="4.00001"/>
<polygon fill="#755608" stroke="#755608" points="629.475,-26.3051 639.881,-29.7641 634.449,-25.7963 639.423,-25.2874 639.423,-25.2874 639.423,-25.2874 634.449,-25.7963 638.965,-20.8108 629.475,-26.3051 629.475,-26.3051"/>
</g>
<!-- Teacher&#45;&gt;TeachersProjectMembership -->
<g id="edge32" class="edge"><title>Teacher&#45;&gt;TeachersProjectMembership</title>
<path fill="none" stroke="#13c361" d="M183.748,-65.8536C186.327,-61.6126 189.335,-57.4567 192.745,-54 197.641,-49.0355 203.388,-44.5442 209.364,-40.562"/>
<ellipse fill="none" stroke="#13c361" cx="181.752" cy="-69.4623" rx="4.00002" ry="4.00002"/>
<polygon fill="#13c361" stroke="#13c361" points="209.702,-40.3531 220.574,-38.9241 213.955,-37.7246 218.208,-35.0961 218.208,-35.0961 218.208,-35.0961 213.955,-37.7246 215.843,-31.2681 209.702,-40.3531 209.702,-40.3531"/>
</g>
<!-- Teacher&#45;&gt;Lesson -->
<g id="edge35" class="edge"><title>Teacher&#45;&gt;Lesson</title>
<path fill="none" stroke="#ecd0ed" d="M214.87,-80.5841C228.778,-77.7673 244.369,-74.9208 258.745,-73 490.157,-42.0804 549.894,-52.9784 782.745,-36 845.364,-31.434 917.727,-25.9552 963.358,-22.4755"/>
<ellipse fill="none" stroke="#ecd0ed" cx="210.815" cy="-81.4223" rx="4.00001" ry="4.00001"/>
<polygon fill="#ecd0ed" stroke="#ecd0ed" points="963.546,-22.4612 973.859,-26.1871 968.531,-22.0807 973.517,-21.7001 973.517,-21.7001 973.517,-21.7001 968.531,-22.0807 973.174,-17.2132 963.546,-22.4612 963.546,-22.4612"/>
</g>
<!-- Teacher&#45;&gt;PracticalWork -->
<g id="edge34" class="edge"><title>Teacher&#45;&gt;PracticalWork</title>
<path fill="none" stroke="#4d2041" d="M145.381,-71.0032C137.195,-65.4324 128.159,-59.3912 119.745,-54 112.342,-49.2574 104.318,-44.3004 96.6655,-39.6584"/>
<ellipse fill="none" stroke="#4d2041" cx="148.722" cy="-73.289" rx="4.00002" ry="4.00002"/>
<polygon fill="#4d2041" stroke="#4d2041" points="96.4788,-39.546 90.2352,-30.5311 92.1959,-36.9658 87.913,-34.3857 87.913,-34.3857 87.913,-34.3857 92.1959,-36.9658 85.5909,-38.2402 96.4788,-39.546 96.4788,-39.546"/>
</g>
</g>
</svg>
