<?xml version="1.0" encoding="UTF-8" standalone="no"?>
<!DOCTYPE svg PUBLIC "-//W3C//DTD SVG 1.1//EN"
 "http://www.w3.org/Graphics/SVG/1.1/DTD/svg11.dtd">
<!-- Generated by graphviz version 2.38.0 (20140413.2041)
 -->
<!-- Title: models_diagram Pages: 1 -->
<svg width="907pt" height="590pt"
 viewBox="0.00 0.00 906.54 590.00" xmlns="http://www.w3.org/2000/svg" xmlns:xlink="http://www.w3.org/1999/xlink">
<g id="graph0" class="graph" transform="scale(1 1) rotate(0) translate(4 586)">
<title>models_diagram</title>
<polygon fill="none" stroke="none" points="-4,4 -4,-586 902.537,-586 902.537,4 -4,4"/>
<!-- _diagram_info -->
<g id="node1" class="node"><title>_diagram_info</title>
<text text-anchor="start" x="86.1938" y="-567.6" font-family="Times,serif" font-size="13.00">Models diagram</text>
<text text-anchor="start" x="86.1938" y="-553.6" font-family="Times,serif" font-size="13.00">Date: May 11 2018 &#45; 19:27</text>
<text text-anchor="start" x="86.1938" y="-539.6" font-family="Times,serif" font-size="13.00">Migration version: 20180508181624</text>
<text text-anchor="start" x="86.1938" y="-525.6" font-family="Times,serif" font-size="13.00">Generated by RailRoady 1.5.3</text>
<text text-anchor="start" x="86.1938" y="-511.6" font-family="Times,serif" font-size="13.00">http://railroady.prestonlee.com</text>
</g>
<!-- StudentsProjectMembership -->
<g id="node2" class="node"><title>StudentsProjectMembership</title>
<ellipse fill="none" stroke="black" cx="488.194" cy="-90" rx="111.28" ry="18"/>
<text text-anchor="middle" x="488.194" y="-86.3" font-family="Times,serif" font-size="14.00">StudentsProjectMembership</text>
</g>
<!-- Campus -->
<g id="node3" class="node"><title>Campus</title>
<ellipse fill="none" stroke="black" cx="483.194" cy="-450" rx="40.0939" ry="18"/>
<text text-anchor="middle" x="483.194" y="-446.3" font-family="Times,serif" font-size="14.00">Campus</text>
</g>
<!-- Classroom -->
<g id="node9" class="node"><title>Classroom</title>
<ellipse fill="none" stroke="black" cx="483.194" cy="-378" rx="48.9926" ry="18"/>
<text text-anchor="middle" x="483.194" y="-374.3" font-family="Times,serif" font-size="14.00">Classroom</text>
</g>
<!-- Campus&#45;&gt;Classroom -->
<g id="edge1" class="edge"><title>Campus&#45;&gt;Classroom</title>
<path fill="none" stroke="#4b0d90" d="M483.194,-423.64C483.194,-418.063 483.194,-412.132 483.194,-406.476"/>
<ellipse fill="none" stroke="#4b0d90" cx="483.194" cy="-427.697" rx="4" ry="4"/>
<polygon fill="#4b0d90" stroke="#4b0d90" points="483.194,-406.104 487.694,-396.104 483.194,-401.104 483.194,-396.104 483.194,-396.104 483.194,-396.104 483.194,-401.104 478.694,-396.104 483.194,-406.104 483.194,-406.104"/>
</g>
<!-- LaboratoryWork -->
<g id="node4" class="node"><title>LaboratoryWork</title>
<ellipse fill="none" stroke="black" cx="70.1938" cy="-18" rx="70.3881" ry="18"/>
<text text-anchor="middle" x="70.1938" y="-14.3" font-family="Times,serif" font-size="14.00">LaboratoryWork</text>
</g>
<!-- Raiting -->
<g id="node5" class="node"><title>Raiting</title>
<ellipse fill="none" stroke="black" cx="463.194" cy="-543" rx="36.2938" ry="18"/>
<text text-anchor="middle" x="463.194" y="-539.3" font-family="Times,serif" font-size="14.00">Raiting</text>
</g>
<!-- AcademicPlan -->
<g id="node6" class="node"><title>AcademicPlan</title>
<ellipse fill="none" stroke="black" cx="177.194" cy="-306" rx="62.2891" ry="18"/>
<text text-anchor="middle" x="177.194" y="-302.3" font-family="Times,serif" font-size="14.00">AcademicPlan</text>
</g>
<!-- AcademicPlan&#45;&gt;LaboratoryWork -->
<g id="edge2" class="edge"><title>AcademicPlan&#45;&gt;LaboratoryWork</title>
<path fill="none" stroke="#a9060c" d="M167.907,-280.177C147.845,-226.554 100.615,-100.313 80.0503,-45.3455"/>
<ellipse fill="none" stroke="#a9060c" cx="169.419" cy="-284.219" rx="4.00001" ry="4.00001"/>
<polygon fill="#a9060c" stroke="#a9060c" points="80.0374,-45.3108 80.748,-34.368 78.2853,-40.6278 76.5333,-35.9448 76.5333,-35.9448 76.5333,-35.9448 78.2853,-40.6278 72.3186,-37.5217 80.0374,-45.3108 80.0374,-45.3108"/>
</g>
<!-- Student -->
<g id="node12" class="node"><title>Student</title>
<ellipse fill="none" stroke="black" cx="355.194" cy="-234" rx="37.8943" ry="18"/>
<text text-anchor="middle" x="355.194" y="-230.3" font-family="Times,serif" font-size="14.00">Student</text>
</g>
<!-- AcademicPlan&#45;&gt;Student -->
<g id="edge3" class="edge"><title>AcademicPlan&#45;&gt;Student</title>
<path fill="none" stroke="#6d61f8" d="M222.203,-287.3C251.67,-275.712 289.732,-260.743 317.582,-249.791"/>
<polygon fill="#6d61f8" stroke="#6d61f8" points="222.093,-287.343 211.14,-286.815 217.44,-289.173 212.787,-291.003 212.787,-291.003 212.787,-291.003 217.44,-289.173 214.434,-295.191 222.093,-287.343 222.093,-287.343"/>
<polygon fill="#6d61f8" stroke="#6d61f8" points="317.67,-249.757 328.623,-250.285 322.323,-247.927 326.976,-246.097 326.976,-246.097 326.976,-246.097 322.323,-247.927 325.329,-241.909 317.67,-249.757 317.67,-249.757"/>
</g>
<!-- PracticalWork -->
<g id="node23" class="node"><title>PracticalWork</title>
<ellipse fill="none" stroke="black" cx="220.194" cy="-18" rx="61.99" ry="18"/>
<text text-anchor="middle" x="220.194" y="-14.3" font-family="Times,serif" font-size="14.00">PracticalWork</text>
</g>
<!-- AcademicPlan&#45;&gt;PracticalWork -->
<g id="edge4" class="edge"><title>AcademicPlan&#45;&gt;PracticalWork</title>
<path fill="none" stroke="#433e8f" d="M180.976,-279.847C189.013,-226.388 207.74,-101.835 216.07,-46.4249"/>
<ellipse fill="none" stroke="#433e8f" cx="180.35" cy="-284.01" rx="4.00001" ry="4.00001"/>
<polygon fill="#433e8f" stroke="#433e8f" points="216.105,-46.1953 222.042,-36.9755 216.848,-41.2509 217.592,-36.3065 217.592,-36.3065 217.592,-36.3065 216.848,-41.2509 213.142,-35.6374 216.105,-46.1953 216.105,-46.1953"/>
</g>
<!-- Teacher -->
<g id="node24" class="node"><title>Teacher</title>
<ellipse fill="none" stroke="black" cx="282.194" cy="-90" rx="38.9931" ry="18"/>
<text text-anchor="middle" x="282.194" y="-86.3" font-family="Times,serif" font-size="14.00">Teacher</text>
</g>
<!-- AcademicPlan&#45;&gt;Teacher -->
<g id="edge5" class="edge"><title>AcademicPlan&#45;&gt;Teacher</title>
<path fill="none" stroke="#e3e1e9" d="M190.054,-278.79C210.324,-237.478 249.46,-157.715 269.577,-116.714"/>
<polygon fill="#e3e1e9" stroke="#e3e1e9" points="190.014,-278.872 181.569,-285.867 187.811,-283.36 185.609,-287.849 185.609,-287.849 185.609,-287.849 187.811,-283.36 189.649,-289.831 190.014,-278.872 190.014,-278.872"/>
<polygon fill="#e3e1e9" stroke="#e3e1e9" points="269.624,-116.618 278.069,-109.623 271.827,-112.129 274.029,-107.641 274.029,-107.641 274.029,-107.641 271.827,-112.129 269.989,-105.658 269.624,-116.618 269.624,-116.618"/>
</g>
<!-- Subgroup -->
<g id="node7" class="node"><title>Subgroup</title>
<ellipse fill="none" stroke="black" cx="343.194" cy="-450" rx="44.6926" ry="18"/>
<text text-anchor="middle" x="343.194" y="-446.3" font-family="Times,serif" font-size="14.00">Subgroup</text>
</g>
<!-- Subgroup&#45;&gt;Student -->
<g id="edge6" class="edge"><title>Subgroup&#45;&gt;Student</title>
<path fill="none" stroke="#f8f139" d="M366.842,-427.507C374.917,-418.639 382.971,-407.698 387.194,-396 403.768,-350.088 383.839,-293.541 368.833,-261.142"/>
<ellipse fill="none" stroke="#f8f139" cx="364.062" cy="-430.41" rx="4.00002" ry="4.00002"/>
<polygon fill="#f8f139" stroke="#f8f139" points="368.721,-260.91 368.434,-249.948 366.551,-256.405 364.38,-251.901 364.38,-251.901 364.38,-251.901 366.551,-256.405 360.326,-253.855 368.721,-260.91 368.721,-260.91"/>
</g>
<!-- ClassesTimetable -->
<g id="node18" class="node"><title>ClassesTimetable</title>
<ellipse fill="none" stroke="black" cx="305.194" cy="-378" rx="73.387" ry="18"/>
<text text-anchor="middle" x="305.194" y="-374.3" font-family="Times,serif" font-size="14.00">ClassesTimetable</text>
</g>
<!-- Subgroup&#45;&gt;ClassesTimetable -->
<g id="edge7" class="edge"><title>Subgroup&#45;&gt;ClassesTimetable</title>
<path fill="none" stroke="#d8f09a" d="M330.071,-424.827C326.645,-418.515 322.935,-411.681 319.452,-405.266"/>
<ellipse fill="none" stroke="#d8f09a" cx="332.087" cy="-428.54" rx="4.00002" ry="4.00002"/>
<polygon fill="#d8f09a" stroke="#d8f09a" points="319.343,-405.064 318.527,-394.128 316.957,-400.67 314.572,-396.275 314.572,-396.275 314.572,-396.275 316.957,-400.67 310.617,-398.422 319.343,-405.064 319.343,-405.064"/>
</g>
<!-- TeachersProjectMembership -->
<g id="node8" class="node"><title>TeachersProjectMembership</title>
<ellipse fill="none" stroke="black" cx="412.194" cy="-18" rx="112.38" ry="18"/>
<text text-anchor="middle" x="412.194" y="-14.3" font-family="Times,serif" font-size="14.00">TeachersProjectMembership</text>
</g>
<!-- Lesson -->
<g id="node19" class="node"><title>Lesson</title>
<ellipse fill="none" stroke="black" cx="476.194" cy="-306" rx="35.9954" ry="18"/>
<text text-anchor="middle" x="476.194" y="-302.3" font-family="Times,serif" font-size="14.00">Lesson</text>
</g>
<!-- Classroom&#45;&gt;Lesson -->
<g id="edge8" class="edge"><title>Classroom&#45;&gt;Lesson</title>
<path fill="none" stroke="#701460" d="M480.658,-351.64C480.1,-346.063 479.507,-340.132 478.941,-334.476"/>
<ellipse fill="none" stroke="#701460" cx="481.065" cy="-355.716" rx="4" ry="4"/>
<polygon fill="#701460" stroke="#701460" points="478.899,-334.055 482.382,-323.657 478.402,-329.08 477.904,-324.104 477.904,-324.104 477.904,-324.104 478.402,-329.08 473.427,-324.552 478.899,-334.055 478.899,-334.055"/>
</g>
<!-- Category -->
<g id="node10" class="node"><title>Category</title>
<ellipse fill="none" stroke="black" cx="593.194" cy="-543" rx="42.7926" ry="18"/>
<text text-anchor="middle" x="593.194" y="-539.3" font-family="Times,serif" font-size="14.00">Category</text>
</g>
<!-- Post -->
<g id="node21" class="node"><title>Post</title>
<ellipse fill="none" stroke="black" cx="593.194" cy="-450" rx="27" ry="18"/>
<text text-anchor="middle" x="593.194" y="-446.3" font-family="Times,serif" font-size="14.00">Post</text>
</g>
<!-- Category&#45;&gt;Post -->
<g id="edge9" class="edge"><title>Category&#45;&gt;Post</title>
<path fill="none" stroke="#03a42e" d="M593.194,-516.729C593.194,-504.725 593.194,-490.362 593.194,-478.129"/>
<ellipse fill="none" stroke="#03a42e" cx="593.194" cy="-520.884" rx="4" ry="4"/>
<polygon fill="#03a42e" stroke="#03a42e" points="593.194,-478.04 597.694,-468.04 593.194,-473.04 593.194,-468.04 593.194,-468.04 593.194,-468.04 593.194,-473.04 588.694,-468.04 593.194,-478.04 593.194,-478.04"/>
</g>
<!-- Semester -->
<g id="node11" class="node"><title>Semester</title>
<ellipse fill="none" stroke="black" cx="177.194" cy="-450" rx="43.5923" ry="18"/>
<text text-anchor="middle" x="177.194" y="-446.3" font-family="Times,serif" font-size="14.00">Semester</text>
</g>
<!-- Semester&#45;&gt;AcademicPlan -->
<g id="edge10" class="edge"><title>Semester&#45;&gt;AcademicPlan</title>
<path fill="none" stroke="#648878" d="M152.489,-427.689C144.05,-418.843 135.627,-407.87 131.194,-396 125.596,-381.011 125.596,-374.989 131.194,-360 135.24,-349.164 142.612,-339.076 150.286,-330.671"/>
<ellipse fill="none" stroke="#648878" cx="155.45" cy="-430.636" rx="4.00002" ry="4.00002"/>
<polygon fill="#648878" stroke="#648878" points="150.347,-330.609 160.552,-326.596 153.839,-327.031 157.332,-323.453 157.332,-323.453 157.332,-323.453 153.839,-327.031 154.111,-320.31 150.347,-330.609 150.347,-330.609"/>
</g>
<!-- Subject -->
<g id="node17" class="node"><title>Subject</title>
<ellipse fill="none" stroke="black" cx="177.194" cy="-378" rx="37.0935" ry="18"/>
<text text-anchor="middle" x="177.194" y="-374.3" font-family="Times,serif" font-size="14.00">Subject</text>
</g>
<!-- Semester&#45;&gt;Subject -->
<g id="edge11" class="edge"><title>Semester&#45;&gt;Subject</title>
<path fill="none" stroke="#76f495" d="M177.194,-421.665C177.194,-416.687 177.194,-411.491 177.194,-406.507"/>
<polygon fill="#76f495" stroke="#76f495" points="177.194,-421.697 172.694,-431.697 177.194,-426.697 177.194,-431.697 177.194,-431.697 177.194,-431.697 177.194,-426.697 181.694,-431.697 177.194,-421.697 177.194,-421.697"/>
<polygon fill="#76f495" stroke="#76f495" points="177.194,-406.104 181.694,-396.104 177.194,-401.104 177.194,-396.104 177.194,-396.104 177.194,-396.104 177.194,-401.104 172.694,-396.104 177.194,-406.104 177.194,-406.104"/>
</g>
<!-- Semester&#45;&gt;ClassesTimetable -->
<g id="edge12" class="edge"><title>Semester&#45;&gt;ClassesTimetable</title>
<path fill="none" stroke="#413c89" d="M209.769,-431.186C227.343,-421.575 249.123,-409.664 267.435,-399.649"/>
<ellipse fill="none" stroke="#413c89" cx="205.992" cy="-433.251" rx="4.00002" ry="4.00002"/>
<polygon fill="#413c89" stroke="#413c89" points="267.61,-399.554 278.542,-398.704 271.996,-397.155 276.383,-394.756 276.383,-394.756 276.383,-394.756 271.996,-397.155 274.224,-390.808 267.61,-399.554 267.61,-399.554"/>
</g>
<!-- Student&#45;&gt;StudentsProjectMembership -->
<g id="edge15" class="edge"><title>Student&#45;&gt;StudentsProjectMembership</title>
<path fill="none" stroke="#8f220c" d="M375.608,-211.204C399.763,-185.415 439.877,-142.586 465.132,-115.623"/>
<ellipse fill="none" stroke="#8f220c" cx="372.67" cy="-214.342" rx="4.00002" ry="4.00002"/>
<polygon fill="#8f220c" stroke="#8f220c" points="465.311,-115.432 475.431,-111.209 468.729,-111.782 472.147,-108.133 472.147,-108.133 472.147,-108.133 468.729,-111.782 468.862,-105.057 465.311,-115.432 465.311,-115.432"/>
</g>
<!-- Student&#45;&gt;LaboratoryWork -->
<g id="edge17" class="edge"><title>Student&#45;&gt;LaboratoryWork</title>
<path fill="none" stroke="#fde43d" d="M320.599,-217.852C300.011,-208.199 273.78,-194.76 252.194,-180 190.294,-137.676 126.61,-76.5076 93.4617,-43.0681"/>
<ellipse fill="none" stroke="#fde43d" cx="324.28" cy="-219.554" rx="4.00002" ry="4.00002"/>
<polygon fill="#fde43d" stroke="#fde43d" points="93.11,-42.7108 89.3016,-32.4274 89.6023,-39.1475 86.0947,-35.5843 86.0947,-35.5843 86.0947,-35.5843 89.6023,-39.1475 82.8878,-38.7412 93.11,-42.7108 93.11,-42.7108"/>
</g>
<!-- Brigade -->
<g id="node15" class="node"><title>Brigade</title>
<ellipse fill="none" stroke="black" cx="665.194" cy="-162" rx="38.1938" ry="18"/>
<text text-anchor="middle" x="665.194" y="-158.3" font-family="Times,serif" font-size="14.00">Brigade</text>
</g>
<!-- Student&#45;&gt;Brigade -->
<g id="edge14" class="edge"><title>Student&#45;&gt;Brigade</title>
<path fill="none" stroke="#531764" d="M398.591,-223.201C457.592,-209.878 562.52,-186.184 621.615,-172.84"/>
<polygon fill="#531764" stroke="#531764" points="398.418,-223.24 387.673,-221.053 393.541,-224.341 388.664,-225.442 388.664,-225.442 388.664,-225.442 393.541,-224.341 389.655,-229.832 398.418,-223.24 398.418,-223.24"/>
<polygon fill="#531764" stroke="#531764" points="621.639,-172.835 632.385,-175.022 626.516,-171.734 631.394,-170.632 631.394,-170.632 631.394,-170.632 626.516,-171.734 630.402,-166.243 621.639,-172.835 621.639,-172.835"/>
</g>
<!-- Project -->
<g id="node16" class="node"><title>Project</title>
<ellipse fill="none" stroke="black" cx="355.194" cy="-162" rx="35.9954" ry="18"/>
<text text-anchor="middle" x="355.194" y="-158.3" font-family="Times,serif" font-size="14.00">Project</text>
</g>
<!-- Student&#45;&gt;Project -->
<g id="edge16" class="edge"><title>Student&#45;&gt;Project</title>
<path fill="none" stroke="#0cec63" d="M355.194,-205.665C355.194,-200.687 355.194,-195.491 355.194,-190.507"/>
<polygon fill="#0cec63" stroke="#0cec63" points="355.194,-205.697 350.694,-215.697 355.194,-210.697 355.194,-215.697 355.194,-215.697 355.194,-215.697 355.194,-210.697 359.694,-215.697 355.194,-205.697 355.194,-205.697"/>
<polygon fill="#0cec63" stroke="#0cec63" points="355.194,-190.104 359.694,-180.104 355.194,-185.104 355.194,-180.104 355.194,-180.104 355.194,-180.104 355.194,-185.104 350.694,-180.104 355.194,-190.104 355.194,-190.104"/>
</g>
<!-- BrigadeMembership -->
<g id="node22" class="node"><title>BrigadeMembership</title>
<ellipse fill="none" stroke="black" cx="701.194" cy="-90" rx="83.6854" ry="18"/>
<text text-anchor="middle" x="701.194" y="-86.3" font-family="Times,serif" font-size="14.00">BrigadeMembership</text>
</g>
<!-- Student&#45;&gt;BrigadeMembership -->
<g id="edge13" class="edge"><title>Student&#45;&gt;BrigadeMembership</title>
<path fill="none" stroke="#31865c" d="M390.568,-218.482C453.422,-192.687 584.529,-138.88 654.629,-110.111"/>
<ellipse fill="none" stroke="#31865c" cx="386.624" cy="-220.101" rx="4.00001" ry="4.00001"/>
<polygon fill="#31865c" stroke="#31865c" points="654.85,-110.02 665.81,-110.386 659.476,-108.121 664.102,-106.223 664.102,-106.223 664.102,-106.223 659.476,-108.121 662.393,-102.06 654.85,-110.02 654.85,-110.02"/>
</g>
<!-- Student&#45;&gt;PracticalWork -->
<g id="edge19" class="edge"><title>Student&#45;&gt;PracticalWork</title>
<path fill="none" stroke="#97f059" d="M327.663,-214.066C298.561,-192.282 254.162,-153.59 234.194,-108 225.631,-88.4499 222.219,-64.4552 220.899,-46.3084"/>
<ellipse fill="none" stroke="#97f059" cx="331.123" cy="-216.606" rx="4.00002" ry="4.00002"/>
<polygon fill="#97f059" stroke="#97f059" points="220.888,-46.1022 224.824,-35.8671 220.609,-41.1099 220.331,-36.1177 220.331,-36.1177 220.331,-36.1177 220.609,-41.1099 215.838,-36.3683 220.888,-46.1022 220.888,-46.1022"/>
</g>
<!-- Student&#45;&gt;Teacher -->
<g id="edge18" class="edge"><title>Student&#45;&gt;Teacher</title>
<path fill="none" stroke="#079a80" d="M332.174,-209.994C324.343,-201.187 316.089,-190.68 310.194,-180 299.462,-160.559 292.195,-136.416 287.759,-118.183"/>
<polygon fill="#079a80" stroke="#079a80" points="332.38,-210.217 335.863,-220.615 335.774,-213.888 339.168,-217.56 339.168,-217.56 339.168,-217.56 335.774,-213.888 342.472,-214.505 332.38,-210.217 332.38,-210.217"/>
<polygon fill="#079a80" stroke="#079a80" points="287.707,-117.957 289.855,-107.204 286.588,-113.084 285.469,-108.211 285.469,-108.211 285.469,-108.211 286.588,-113.084 281.083,-109.218 287.707,-117.957 287.707,-117.957"/>
</g>
<!-- Admin -->
<g id="node13" class="node"><title>Admin</title>
<ellipse fill="none" stroke="black" cx="690.194" cy="-543" rx="35.9954" ry="18"/>
<text text-anchor="middle" x="690.194" y="-539.3" font-family="Times,serif" font-size="14.00">Admin</text>
</g>
<!-- ApplicationRecord -->
<g id="node14" class="node"><title>ApplicationRecord</title>
<ellipse fill="none" stroke="black" cx="821.194" cy="-543" rx="77.1866" ry="18"/>
<text text-anchor="middle" x="821.194" y="-539.3" font-family="Times,serif" font-size="14.00">ApplicationRecord</text>
</g>
<!-- Brigade&#45;&gt;BrigadeMembership -->
<g id="edge20" class="edge"><title>Brigade&#45;&gt;BrigadeMembership</title>
<path fill="none" stroke="#b19735" d="M677.504,-137.062C680.811,-130.632 684.404,-123.647 687.768,-117.106"/>
<ellipse fill="none" stroke="#b19735" cx="675.555" cy="-140.854" rx="4.00002" ry="4.00002"/>
<polygon fill="#b19735" stroke="#b19735" points="687.9,-116.849 696.475,-110.014 690.187,-112.403 692.473,-107.956 692.473,-107.956 692.473,-107.956 690.187,-112.403 688.472,-105.898 687.9,-116.849 687.9,-116.849"/>
</g>
<!-- Project&#45;&gt;StudentsProjectMembership -->
<g id="edge21" class="edge"><title>Project&#45;&gt;StudentsProjectMembership</title>
<path fill="none" stroke="#4254cf" d="M386.207,-144.677C404.623,-134.984 428.175,-122.589 448.005,-112.152"/>
<ellipse fill="none" stroke="#4254cf" cx="382.511" cy="-146.622" rx="4.00002" ry="4.00002"/>
<polygon fill="#4254cf" stroke="#4254cf" points="448.262,-112.017 459.207,-111.342 452.686,-109.688 457.111,-107.359 457.111,-107.359 457.111,-107.359 452.686,-109.688 455.015,-103.377 448.262,-112.017 448.262,-112.017"/>
</g>
<!-- Project&#45;&gt;TeachersProjectMembership -->
<g id="edge22" class="edge"><title>Project&#45;&gt;TeachersProjectMembership</title>
<path fill="none" stroke="#7796f4" d="M355.286,-135.408C356.205,-117.048 359.241,-92.1045 368.194,-72 372.765,-61.7342 379.909,-51.8638 387.121,-43.4816"/>
<ellipse fill="none" stroke="#7796f4" cx="355.129" cy="-139.845" rx="4" ry="4"/>
<polygon fill="#7796f4" stroke="#7796f4" points="387.251,-43.3389 397.305,-38.9626 390.613,-39.6379 393.975,-35.9369 393.975,-35.9369 393.975,-35.9369 390.613,-39.6379 390.644,-32.9111 387.251,-43.3389 387.251,-43.3389"/>
</g>
<!-- Project&#45;&gt;Teacher -->
<g id="edge23" class="edge"><title>Project&#45;&gt;Teacher</title>
<path fill="none" stroke="#f006ec" d="M331.829,-138.595C323.514,-130.623 314.151,-121.644 305.815,-113.65"/>
<polygon fill="#f006ec" stroke="#f006ec" points="332.136,-138.89 336.239,-149.059 335.745,-142.35 339.354,-145.811 339.354,-145.811 339.354,-145.811 335.745,-142.35 342.468,-142.563 332.136,-138.89 332.136,-138.89"/>
<polygon fill="#f006ec" stroke="#f006ec" points="305.726,-113.565 301.623,-103.396 302.117,-110.105 298.508,-106.644 298.508,-106.644 298.508,-106.644 302.117,-110.105 295.394,-109.892 305.726,-113.565 305.726,-113.565"/>
</g>
<!-- Subject&#45;&gt;AcademicPlan -->
<g id="edge24" class="edge"><title>Subject&#45;&gt;AcademicPlan</title>
<path fill="none" stroke="#581525" d="M177.194,-351.64C177.194,-346.063 177.194,-340.132 177.194,-334.476"/>
<ellipse fill="none" stroke="#581525" cx="177.194" cy="-355.697" rx="4" ry="4"/>
<polygon fill="#581525" stroke="#581525" points="177.194,-334.104 181.694,-324.104 177.194,-329.104 177.194,-324.104 177.194,-324.104 177.194,-324.104 177.194,-329.104 172.694,-324.104 177.194,-334.104 177.194,-334.104"/>
</g>
<!-- ClassesTimetable&#45;&gt;Lesson -->
<g id="edge25" class="edge"><title>ClassesTimetable&#45;&gt;Lesson</title>
<path fill="none" stroke="#fa8f4a" d="M349.263,-358.96C377.406,-347.439 413.448,-332.685 439.93,-321.845"/>
<ellipse fill="none" stroke="#fa8f4a" cx="345.16" cy="-360.639" rx="4.00001" ry="4.00001"/>
<polygon fill="#fa8f4a" stroke="#fa8f4a" points="439.968,-321.83 450.927,-322.206 444.595,-319.935 449.222,-318.041 449.222,-318.041 449.222,-318.041 444.595,-319.935 447.517,-313.876 439.968,-321.83 439.968,-321.83"/>
</g>
<!-- Group -->
<g id="node20" class="node"><title>Group</title>
<ellipse fill="none" stroke="black" cx="343.194" cy="-543" rx="33.2948" ry="18"/>
<text text-anchor="middle" x="343.194" y="-539.3" font-family="Times,serif" font-size="14.00">Group</text>
</g>
<!-- Group&#45;&gt;Subgroup -->
<g id="edge26" class="edge"><title>Group&#45;&gt;Subgroup</title>
<path fill="none" stroke="#964ac9" d="M343.194,-516.729C343.194,-504.725 343.194,-490.362 343.194,-478.129"/>
<ellipse fill="none" stroke="#964ac9" cx="343.194" cy="-520.884" rx="4" ry="4"/>
<polygon fill="#964ac9" stroke="#964ac9" points="343.194,-478.04 347.694,-468.04 343.194,-473.04 343.194,-468.04 343.194,-468.04 343.194,-468.04 343.194,-473.04 338.694,-468.04 343.194,-478.04 343.194,-478.04"/>
</g>
<!-- LineItem -->
<g id="node25" class="node"><title>LineItem</title>
<ellipse fill="none" stroke="black" cx="593.194" cy="-378" rx="43.5923" ry="18"/>
<text text-anchor="middle" x="593.194" y="-374.3" font-family="Times,serif" font-size="14.00">LineItem</text>
</g>
<!-- Post&#45;&gt;LineItem -->
<g id="edge27" class="edge"><title>Post&#45;&gt;LineItem</title>
<path fill="none" stroke="#585242" d="M593.194,-423.64C593.194,-418.063 593.194,-412.132 593.194,-406.476"/>
<ellipse fill="none" stroke="#585242" cx="593.194" cy="-427.697" rx="4" ry="4"/>
<polygon fill="#585242" stroke="#585242" points="593.194,-406.104 597.694,-396.104 593.194,-401.104 593.194,-396.104 593.194,-396.104 593.194,-396.104 593.194,-401.104 588.694,-396.104 593.194,-406.104 593.194,-406.104"/>
</g>
<!-- Teacher&#45;&gt;LaboratoryWork -->
<g id="edge29" class="edge"><title>Teacher&#45;&gt;LaboratoryWork</title>
<path fill="none" stroke="#d3906f" d="M243.706,-76.2918C209.442,-64.9784 159.059,-48.3424 121.401,-35.9081"/>
<ellipse fill="none" stroke="#d3906f" cx="247.569" cy="-77.5672" rx="4.00001" ry="4.00001"/>
<polygon fill="#d3906f" stroke="#d3906f" points="121.127,-35.8175 113.042,-28.409 116.379,-34.2498 111.631,-32.6821 111.631,-32.6821 111.631,-32.6821 116.379,-34.2498 110.22,-36.9552 121.127,-35.8175 121.127,-35.8175"/>
</g>
<!-- Teacher&#45;&gt;TeachersProjectMembership -->
<g id="edge28" class="edge"><title>Teacher&#45;&gt;TeachersProjectMembership</title>
<path fill="none" stroke="#4128d7" d="M313.917,-71.9184C331.571,-62.4122 353.71,-50.4912 372.504,-40.3715"/>
<ellipse fill="none" stroke="#4128d7" cx="310.168" cy="-73.9371" rx="4.00002" ry="4.00002"/>
<polygon fill="#4128d7" stroke="#4128d7" points="372.622,-40.3079 383.56,-39.529 377.024,-37.9374 381.427,-35.5668 381.427,-35.5668 381.427,-35.5668 377.024,-37.9374 379.293,-31.6047 372.622,-40.3079 372.622,-40.3079"/>
</g>
<!-- Teacher&#45;&gt;PracticalWork -->
<g id="edge30" class="edge"><title>Teacher&#45;&gt;PracticalWork</title>
<path fill="none" stroke="#fbb8f2" d="M262.781,-67.0823C256.21,-59.6636 248.828,-51.3289 242.079,-43.7086"/>
<ellipse fill="none" stroke="#fbb8f2" cx="265.473" cy="-70.1216" rx="4.00002" ry="4.00002"/>
<polygon fill="#fbb8f2" stroke="#fbb8f2" points="241.702,-43.2833 238.44,-32.8137 238.387,-39.5403 235.071,-35.7973 235.071,-35.7973 235.071,-35.7973 238.387,-39.5403 231.703,-38.781 241.702,-43.2833 241.702,-43.2833"/>
</g>
</g>
</svg>
